<svg xmlns="http://www.w3.org/2000/svg" fill="none" viewBox="0 0 226 116">
  <path fill="#5B6670" d="M68.7103 19h5.22c2.268 0 4.788-.882 4.788-3.546 0-1.656-1.116-2.898-2.79-3.114v-.036c1.314-.414 2.196-1.386 2.196-2.808 0-2.772-2.43-3.24-4.662-3.24h-4.752V19zm2.808-10.368h1.908c.882 0 1.89.27 1.89 1.332 0 1.026-.9 1.386-1.764 1.386h-2.034V8.632zm0 5.094h2.124c.918 0 2.268.198 2.268 1.404 0 1.116-.99 1.494-1.872 1.494h-2.52v-2.898zM80.0222 19h2.808v-5.094h1.386L86.8802 19h3.366l-3.24-5.382c1.8-.324 2.754-1.71 2.754-3.492 0-2.97-2.196-3.87-4.806-3.87h-4.932V19zm2.808-10.368h1.836c1.026 0 2.178.198 2.178 1.476 0 1.386-1.332 1.422-2.358 1.422h-1.656V8.632zM91.442 19h8.982v-2.592H94.25v-2.592h5.526v-2.592H94.25V8.848h5.85V6.256h-8.658V19zm10.978 0h8.982v-2.592h-6.174v-2.592h5.526v-2.592h-5.526V8.848h5.85V6.256h-8.658V19zm10.87 0h4.59c3.798 0 7.164-2.214 7.164-6.336 0-4.662-3.438-6.408-7.542-6.408h-4.212V19zm2.808-10.152h1.656c2.376 0 4.374 1.17 4.374 3.672 0 2.898-1.962 3.888-4.572 3.888h-1.458v-7.56zM126.552 19h2.808V6.256h-2.808V19zm5.002 0h2.808V9.928h.036L139.96 19h3.672V6.256h-2.808v8.856h-.036l-5.418-8.856h-3.816V19zm25.856-7.56h-4.986v2.592h2.286v2.07c-.522.288-1.422.63-2.646.63-2.394 0-3.96-1.728-3.96-4.104 0-2.376 1.566-4.104 3.96-4.104 1.422 0 2.34.414 3.096 1.206l1.98-2.16c-1.278-1.188-3.06-1.638-5.076-1.638-3.978 0-6.876 2.61-6.876 6.696s2.898 6.696 6.876 6.696c1.872 0 3.69-.36 5.346-1.224v-6.66z"/>
  <rect width="224" height="86" x="1" y="29" fill="#ECEDED" stroke="#5B6670" stroke-width="2" rx="7"/>
  <path fill="#fff" stroke="#1D1D1B" stroke-width="2" d="M64.3259 40H12V94.4177C12 99.691 16.3472 104 21.6619 104H73.9878V49.5701C74 44.309 69.6405 40 64.3259 40z"/>
  <path fill="#1D1D1B" d="M64.3259 81.2827H12v9.5701-9.4968 13.0612c0 5.2611 4.3472 9.5698 9.6619 9.5698H74v-9.3745 3.8329-7.5926c0-5.2611-4.3472-9.5701-9.6741-9.5701z"/>
  <g fill="#fff">
    <path d="M37.1771 85.0059c1.8981 0 3.2819 1.245 3.2819 3.1981s-1.3838 3.1982-3.2819 3.1982c-1.898 0-3.2696-1.2451-3.2696-3.1982 0-1.9531 1.3838-3.1981 3.2696-3.1981zm0 5.1512c1.1389 0 1.8859-.8178 1.8859-1.9531 0-1.1352-.747-1.9531-1.8859-1.9531-1.1388 0-1.8858.8179-1.8858 1.9531 0 1.1353.747 1.9531 1.8858 1.9531z"/>
    <path d="M41.4509 85.1528h2.2532c1.2613 0 2.3022.4029 2.3022 1.8433 0 1.4281-.9674 1.8676-2.2409 1.8676h-.9797v2.3681h-1.3348v-6.079zm1.3471 2.5757h.8939c.4776 0 .9429-.1587.9429-.7324 0-.6226-.6368-.708-1.1511-.708h-.6857v1.4404z"/>
    <path d="M48.1249 86.3369H46.386v-1.1841h4.8003v1.1841h-1.7266v4.8949h-1.3348v-4.8949z"/>
    <path d="M51.9332 85.1528h1.3348v6.079h-1.3348v-6.079z"/>
    <path d="M28.6664 94.3569h2.0083c1.9593 0 3.588.8301 3.588 3.0517 0 1.9653-1.6042 3.0274-3.4165 3.0274h-2.192v-6.0791h.0122zm1.3348 4.8461h.698c1.2491 0 2.1797-.476 2.1797-1.8554 0-1.1963-.9551-1.7578-2.0817-1.7578h-.7838v3.6132h-.0122z"/>
    <path d="M35.2423 94.3569h1.3348v6.0791h-1.3348v-6.0791z"/>
    <path d="M43.3857 100.009c-.7837.415-1.6532.586-2.5471.586-1.8981 0-3.2696-1.2455-3.2696-3.1986 0-1.9531 1.3837-3.1982 3.2696-3.1982.9674 0 1.8123.2198 2.4246.7813l-.9429 1.0253c-.3551-.3784-.796-.5737-1.4817-.5737-1.1389 0-1.8859.8179-1.8859 1.9531 0 1.1352.747 1.9531 1.8859 1.9531.5878 0 1.0164-.1587 1.2613-.3052v-.9643H41.01v-1.2329h2.3757v3.1741z"/>
    <path d="M44.696 94.3569h4.1268v1.2329h-2.7921v1.1352h2.6329v1.2329h-2.6329v1.2329h2.939v1.2332h-4.286v-6.0671h.0123z"/>
    <path d="M53.1334 95.8462c-.2204-.2686-.649-.4029-.9674-.4029-.3796 0-.9062.1709-.9062.6226 0 1.1108 2.792.3906 2.792 2.5268 0 1.3549-1.0899 2.0023-2.3389 2.0023-.7837 0-1.4695-.232-2.0451-.7694l.9552-1.0498c.2694.354.7225.5737 1.1634.5737.4408 0 .9306-.2075.9306-.6348 0-1.1108-2.8532-.5126-2.8532-2.539 0-1.2939 1.1266-1.9775 2.3144-1.9775.6858 0 1.347.1831 1.8614.6348l-.9062 1.0132z"/>
    <path d="M56.3173 95.541h-1.7389v-1.1841h4.8003v1.1841H57.652v4.895h-1.3347v-4.895z"/>
  </g>
  <g fill="#1D1D1B">
    <path d="M38.9774 61.0684c-.3674 0-.7593.0976-1.1266.3662-.2939.2197-.6001.5493-.4286.9033.1959.3906.8449.6835 1.6531.7568-.1102-.4761.1837-1.0864.9552-1.4526.1102-.0489.2082-.1099.3184-.1587-.1592-.0977-.3307-.1831-.5143-.2564-.2327-.0854-.5266-.1586-.8572-.1586z"/>
    <path d="M54.8354 45.0288c-.3184-.1586-.5511-.476-.8327-.6835-.3306-.2442-.6613-.5249-1.0409-.647-2.6206-.8545-6.3922.3052-7.9475 2.5634-.5265.7568-.8816 1.7334-.9919 2.6367-.3183 2.539-1.6531 4.3334-3.7226 5.7372-1.9838 1.3549-3.9187 2.7953-5.8168 4.2601-2.3511 1.8066-3.9308 4.2846-5.535 6.7015-.8695 1.3184-1.6042 2.7221-2.3634 4.1137-.1225.2319-.0735.5493-.098.8301.2817-.0122.6123.061.8572-.0367.747-.3051 1.4695-.6713 2.4246-1.123-1.2245 2.2949-2.3634 4.4433-3.5512 6.6771.4041.0488.6245.0732.8939.1099-1.249 1.953-2.4614 3.8451-3.6737 5.7494.0857.0976.1592.1953.2449.3051 1.7267-.9155 3.4656-1.831 5.3392-2.8197-2.9635 6.9212-4.6534 14.2697-9.0374 20.4951.0613.061.1225.1338.1837.1958.3429-.1836.7225-.3179 1.0287-.562 1.9103-1.5259 3.2941-3.4789 4.4696-5.5785 2.9145-5.2001 5.8535-10.3757 8.6822-15.6124 1.0164-1.8921 2.5594-2.7465 4.5799-3.0761.7715-.1221 1.3471.0366 1.7757.7324.2326.3784.6.6591.8694 1.0131.1837.232.4653.5738.4041.7569-.098.2807-.4286.5859-.7102.6591-.6858.1953-1.4205.2564-2.1308.3906-.1714.0367-.3184.1343-.5021.2076.7103.476 2.7553.476 3.6982-.0489.5389-.2929.9552-.354 1.4818.0489.3061.2319.7837.2929 1.1878.3051 1.0286.0244 2.0573-.0732 3.0859-.0488.6246.0122 1.2491.1709 2.0206.2807.2694-.3662.0245-.6835-.5511-.7934-1.0409-.1953-2.0818-.3296-3.1227-.4883-.5388-.0732-1.0776-.1342-1.6164-.1831-1.1266-.122-1.5674-.7568-1.3715-1.9042.049-.2686.0735-.5371.0857-.8057.0245-.7812.3796-1.2939 1.0532-1.7455 2.4001-1.5869 4.5798-3.4057 6.331-5.7006 2.5226-3.308 3.588-6.9456 2.4981-11.0349-.4898-1.8432-.3184-3.6742-.0735-5.5052 1.494-.2808 1.8614-.5249 2.7431-1.6601.1102.8056.2204 1.6112.3306 2.4047 1.8613-2.124 1.0654-5.8104-1.5797-7.1166zm-3.2696 9.4725c.5511 1.2939 1.1021 2.3071-.2572 3.1493-1.0164.6226-1.8123-.2075-2.4981-.5859-.3551.6958-.4776 1.123-.6123 2.0629-.1224.8789-.7347 1.2329-.8327 1.8677.7103.6103 1.1511 1.5014.8572 2.246-.2571.6836-.8817 1.0864-1.4082.9644-.5144.415-1.4205.5004-1.9104-.1587-.6612-.8667-.4898-1.6968-.1592-2.4658h-.0244c-.3429-.1221-.6981.0977-1.3593.5371-.3674.2441-.7837.5127-1.2858.769.3918 1.477.9062 2.1484 2.4001 1.9653.9185-.1098 1.641.0977 1.9471.5859.1714.2686.1714.5738.0245.8179-.2082.3296-.649.4883-1.2001.4272-.9429-.1098-1.7389-.6103-2.4369-1.0498-.4408-.2685-.8449-.5371-1.2245-.6591-.5021-.1587-.8328-.0611-.9675.0854-.0857.0855-.0979.1831-.0612.293.0857.2441.4653.5371 1.2858.6225 2.3267.2686 3.6615.7813 3.7472 1.4282.0245.1343.0122.4639-.5021.6714-.5143.2075-1.1756-.1221-1.947-.5005-.5511-.2685-1.1634-.5859-1.7634-.708-.5511-.1098-.8572 0-.9307.0855-.0122.0122-.0245.0244 0 .061.0735.1465.4898.4395 1.5307.4517 1.0899.0122 2.0573.5126 2.2655 1.1596.0979.3296-.0245.6347-.3307.8545-.4041.2685-1.0041.2197-1.6409.122h-.049c-1.3225-.122-2.1307.0855-2.143.9766-.0122.476-.0612 1.0986-.502 1.6479-.4409.5493-.2205 1.1108-.1837 1.3549.0367.2442-1.1266.3052-1.3593-.2197-.1347-.3052.2816-.0854.2572-.708-.0245-.5127-.1715-1.062.2326-1.8798.4041-.8179.845-1.416 1.7022-1.6601.3796-.1099.8082-.1099 1.2123-.0611.2694.0122.5266.0489.7837.0855.6001.0854 1.1634.1587 1.445-.0366.1837-.1343.1715-.2564.147-.3418-.1102-.3418-.796-.8301-1.8246-.8423-1.0042-.0122-1.7267-.2685-1.9471-.708-.098-.1831-.0735-.3906.049-.5493.2204-.293.747-.3906 1.396-.2563.6613.1342 1.3103.4516 1.8858.7446.6368.3174 1.2368.6225 1.5675.4882.1347-.061.2326-.1342.2204-.183-.0245-.1832-.6735-.7325-3.3431-1.0376-.8817-.0977-1.494-.4395-1.6654-.9277-.098-.2686-.0367-.5615.1714-.7691.3062-.3173.845-.3906 1.445-.1953.4409.1343.8695.4151 1.3348.708.6858.4395 1.4083.8789 2.241.9766.4286.0488.6735-.0733.7592-.2076.0612-.0976.049-.2075-.0245-.3295-.1592-.2564-.6367-.4761-1.5062-.3784-1.9103.2441-2.5226-.8545-2.89-2.2217-.2204.0977-.4653.1709-.7102.2564-.4776.2807-.8817.476-1.0287.4516-.2081-.0366-.3673-.1098-.502-.2075-1.0899-.0122-2.0696-.3784-2.388-1.0132-.1102-.2319-.2939-.8422.5633-1.477.6858-.5005 1.5185-.5981 2.4247-.2685.2939.1098.5755.2685.8327.4394.9184-.476 1.6532-.8667 2.3022-.6836.8327.232 1.0531-.6225.9184-.9033-.0857-.1709-.1469-.3784-.1469-.5981-.3184-.3052-.7348-.2075-1.3838-.5371-.649-.3296-.5755-1.0009-.1469-1.5747-.2205-.4638-.1837-.8056-.049-1.0619l-.147-.2442c-.2326-.2441-.5143-.4638-.1592-.9521.4164-.5615 1.3471-.415 2.5471.0854 1.2246.5127 1.6532 2.2827 1.6655 2.6489.0122.354-.6736.708-.7715 1.1352-.0857.3784-.4286.1953-.8205.4029-.0979.122-.1959.2197-.2939.2807-.1347.415.3184 1.0498.2572 1.2817-.0735.2686-.5511.2442-1.0287.8423-.0367.0488-.1224.1221-.1836.1953.5388-.3418.9919-.5737 1.4694-.4028.0368.0122.049.0366.0735.061.3062-.4394.8205-.7324 1.3715-.708.2694-.3906.196-.8789.3429-1.2695.3184-.8545.9552-1.1963 1.4083-2.3437-.6613-.0244-1.4328.0977-1.8859-1.0376-.5755-1.4526 1.6042-1.9652 2.3634-2.6732 1.543-1.4526 1.8247-3.2348 4.0534-3.9794l.049.769c-2.939 1.7822-1.6655 3.2104-1.1144 4.5165z"/>
  </g>
  <path fill="#fff" stroke="#1D1D1B" stroke-width="2" d="M134.326 40H82V94.4177C82 99.691 86.3472 104 91.6619 104h52.3261V49.5701C144 44.309 139.641 40 134.326 40z"/>
  <g fill="#1D1D1B">
    <path d="M134.326 81.2827H82v9.5701-9.4968 13.0612c0 5.2611 4.3472 9.5698 9.6619 9.5698H144v-9.3745 3.8329-7.5926c0-5.2611-4.347-9.5701-9.674-9.5701z"/>
    <path d="M103.528 55.8562c-.539.122-1.127.1709-.074-.4273 1.323-.7446 3.135-1.3671 4.311-1.7211.331-.7446.588-1.477.808-2.185-.906.2075-2.253.5126-2.767.6713-.466.1465-.711.0367.257-.5737.796-.5005 2.118-1.0742 2.878-1.3794 1.004-4.016.612-7.0555.612-7.0555s-4.592 1.3794-9.013 5.2856c.11.7934.269 2.185.147 2.6733-.208.8544-.245.2075-.404-.4639-.061-.2441-.27-.9521-.4655-1.5625-2.0451 1.9531-3.9921 4.4677-5.3637 7.6659-2.143 5.0169-2.045 9.9851-2.045 9.9851s-2.2287 5.4442-2.6083 6.9212c-.3796 1.477.1469 1.1352.551.0122.2449-.708 1.8124-5.1878 4.3717-10.2903 2.2165-4.4188 4.4207-8.0442 6.8458-10.8884 0 0 1.934-2.2338 2.241-2.478.306-.2441 2.118-2.0019.391.3174-1.726 2.3193-6.3673 8.3006-10.0656 16.3693 0 0 5.6576-2.478 9.9926-7.3485 1.212-1.3549 2.155-2.7587 2.902-4.1503-1.347.2197-2.939.4883-3.502.6226z"/>
    <path d="M117.574 55.8562c-.539.122-1.127.1709-.074-.4273 1.323-.7446 3.135-1.3671 4.311-1.7211.33-.7446.588-1.477.808-2.185-.906.2075-2.253.5126-2.768.6713-.465.1465-.71.0367.258-.5737.796-.5005 2.118-1.0742 2.877-1.3794 1.004-4.016.613-7.0555.613-7.0555s-4.593 1.3794-9.013 5.2856c.11.7934.269 2.185.147 2.6733-.208.8544-.245.2075-.404-.4639-.062-.2441-.27-.9521-.466-1.5625-2.045 1.9531-3.992 4.4677-5.363 7.6659-2.143 5.0169-2.045 9.9851-2.045 9.9851s-2.229 5.4442-2.609 6.9212c-.379 1.477.147 1.1352.551.0122.245-.708 1.813-5.1878 4.372-10.2903 2.217-4.4188 4.421-8.0442 6.845-10.8884 0 0 1.935-2.2338 2.241-2.478.307-.2441 2.119-2.0019.392.3174-1.726 2.3193-6.368 8.3006-10.066 16.3693 0 0 5.658-2.478 9.993-7.3485 1.212-1.3549 2.155-2.7587 2.902-4.1503-1.347.2197-2.939.4883-3.502.6226z"/>
    <path d="M131.632 55.8562c-.539.122-1.127.1709-.074-.4273 1.323-.7446 3.135-1.3671 4.311-1.7211.33-.7446.588-1.477.808-2.185-.906.2075-2.253.5126-2.767.6713-.466.1465-.711.0367.257-.5737.796-.5005 2.118-1.0742 2.877-1.3794 1.005-4.016.613-7.0555.613-7.0555s-4.592 1.3794-9.013 5.2856c.11.7934.269 2.185.147 2.6733-.208.8544-.245.2075-.404-.4639-.062-.2441-.27-.9521-.466-1.5625-2.045 1.9531-3.992 4.4677-5.363 7.6659-2.143 5.0169-2.045 9.9851-2.045 9.9851s-2.229 5.4442-2.609 6.9212c-.379 1.477.147 1.1352.551.0122.245-.708 1.813-5.1878 4.372-10.2903 2.217-4.4188 4.421-8.0442 6.846-10.8884 0 0 1.934-2.2338 2.24-2.478.307-.2441 2.119-2.0019.392.3174-1.726 2.3193-6.367 8.3006-10.066 16.3693 0 0 5.658-2.478 9.993-7.3485 1.212-1.3549 2.155-2.7587 2.902-4.1503-1.359.2197-2.939.4883-3.502.6226z"/>
  </g>
  <path fill="#5B6670" d="M124.039 67.416h-1.371c-.135.3174-.27.647-.404.9888-.931 2.246-1.923 4.8094-2.266 5.7493-.294.8423-.796 1.9165-1.886 2.0142 0 0-.391.0854-.722-.0611-.331-.1465-.612-.476-.612-.476-.576-.6714-.417-1.5381-.221-2.2949.245-.9399 1.115-3.1982 1.8-4.9315.147-.354.27-.6836.392-.9888H108.683c-.134.3174-.269.647-.404.9888-.931 2.246-1.922 4.8094-2.265 5.7493-.294.8423-.796 1.9165-1.886 2.0142 0 0-.098.0244-.233.0244s-.318-.0122-.477-.0855c-.331-.1465-.613-.476-.613-.476-.575-.6714-.416-1.5381-.22-2.2949.245-.9399 1.114-3.1982 1.8-4.9315.147-.354.269-.6836.392-.9888H94.6987c-.1347.3174-.2694.647-.4041.9888-.9307 2.246-1.9226 4.8094-2.2655 5.7493-.2939.8423-.796 1.9165-1.8858 2.0142 0 0-.3919.0854-.7225-.0611-.3307-.1465-.6001-.476-.6001-.476-.5755-.6714-.4163-1.5381-.2204-2.2949.2449-.9399 1.1144-3.1982 1.8001-4.9315.147-.354.2694-.6836.3919-.9888h-5.8167v.9888h4.0411c-.6858 1.7211-1.4205 3.6986-1.6654 4.6141-.1837.7202-.5756 2.1972.5143 3.4667 0 0 .6612.6348 1.0531.7935.6368.2685 1.347.1587 1.347.1587 2.0451-.1709 2.7553-2.1973 2.988-2.8564.3061-.8789 1.4695-3.8207 2.4246-6.1766h7.3357c-.674 1.7211-1.421 3.6986-1.666 4.6141-.184.7202-.575 2.1972.514 3.4667 0 0 .662.6348 1.054.7935.318.1342.661.1831.918.1831.257.0122.429-.0244.429-.0244 2.045-.1709 2.755-2.1973 2.988-2.8564.306-.8789 1.469-3.8207 2.424-6.1766h7.311c-.674 1.7211-1.421 3.6986-1.666 4.6141-.183.7202-.575 2.1972.515 3.4667 0 0 .661.6348 1.053.7935.637.2685 1.347.1587 1.347.1587 2.045-.1709 2.755-2.1973 2.988-2.8564.306-.8789 1.469-3.8207 2.425-6.1766h17.388v-.9888h-16.997z"/>
  <g fill="#fff">
    <path d="M106.895 84.9937c1.899 0 3.27 1.245 3.27 3.1981s-1.384 3.1982-3.27 3.1982c-1.898 0-3.281-1.2451-3.281-3.1982 0-1.9531 1.396-3.1981 3.281-3.1981zm0 5.1512c1.139 0 1.886-.8179 1.886-1.9531 0-1.1352-.747-1.9531-1.886-1.9531-1.138 0-1.885.8179-1.885 1.9531 0 1.1352.747 1.9531 1.885 1.9531z"/>
    <path d="M111.169 85.1523h2.253c1.262 0 2.303.4029 2.303 1.8433 0 1.4282-.968 1.8676-2.241 1.8676h-.98v2.3681h-1.335v-6.079zm1.347 2.5757h.894c.478 0 .943-.1587.943-.7324 0-.6226-.637-.708-1.151-.708h-.686v1.4404z"/>
    <path d="M117.843 86.3364h-1.739v-1.1841h4.801v1.1841h-1.727v4.8949h-1.335v-4.8949z"/>
    <path d="M121.664 85.1523h1.335v6.079h-1.335v-6.079z"/>
    <path d="M94.2457 94.3564h4.0778v1.2329h-2.7308v1.2329h2.5349v1.2451h-2.5349v2.3677h-1.3348v-6.0786h-.0122z"/>
    <path d="M99.4256 94.3564h4.1264v1.2329h-2.792v1.1353h2.633v1.2328h-2.633v1.2329h2.939v1.2327h-4.2857v-6.0666h.0123z"/>
    <path d="M106.859 94.3564h1.102l2.645 6.0786H109.1l-.527-1.2813h-2.363l-.502 1.2813h-1.47l2.621-6.0786zm.514 1.77l-.735 1.8921h1.482l-.747-1.8921z"/>
    <path d="M112.479 95.5405h-1.738v-1.1841h4.8v1.1841h-1.727v4.8945h-1.335v-4.8945z"/>
    <path d="M116.312 94.3564h1.335v2.2705h2.596v-2.2705h1.335v6.0786h-1.335v-2.624h-2.596v2.624h-1.335v-6.0786z"/>
    <path d="M122.962 94.3564h4.127v1.2329h-2.792v1.1353h2.632v1.2328h-2.632v1.2329h2.939v1.2327h-4.286v-6.0666h.012z"/>
    <path d="M128.399 94.3564h2.351c1.249 0 2.29.4273 2.29 1.8433 0 .8544-.453 1.5136-1.31 1.6601l1.543 2.5632h-1.604l-1.274-2.4289h-.661v2.4289h-1.335v-6.0666zm1.347 2.5146h.784c.49 0 1.126-.0122 1.126-.6835 0-.6104-.551-.708-1.041-.708h-.869v1.3915z"/>
    <path stroke="#1D1D1B" stroke-width="2" d="M204.326 40H152V94.4177c0 5.2733 4.347 9.5823 9.662 9.5823h52.326V49.5701C214 44.309 209.641 40 204.326 40z"/>
  </g>
  <g fill="#1D1D1B">
    <path d="M204.326 81.2827H152v9.5701-9.4968 13.0612c0 5.2611 4.347 9.5698 9.662 9.5698H214v-9.3745 3.8329-7.5926c0-5.2611-4.347-9.5701-9.674-9.5701z"/>
    <path d="M203.861 62.1552c-1.58-3.3569-5.829-3.4301-8.279-3.4301h-12.588-12.589c-2.449 0-6.686.0732-8.266 3.4301-.991 2.0996.025 7.7269 5.817 10.8274 2.804 1.5014 7.36 3.2592 15.038 3.2592s12.233-1.7578 15.038-3.2592c5.804-3.1005 6.808-8.7278 5.829-10.8274zm-1.482.354c-.123.2319-.282.4272-.441.6225-.184.1831-.367.3418-.563.5005-.392.3174-.833.5371-1.286.7324-.478.1465-.931.3174-1.421.3906l-.734.0733c-.258-.0122-.502 0-.76-.0611l-.012-.0366c.208-.1587.429-.2685.637-.4028l.637-.3296c.416-.2319.845-.3906 1.273-.5859.429-.1709.845-.3418 1.298-.4761.221-.0732.453-.1465.662-.2319.244-.0366.453-.1465.71-.1953zm-8.217 4.724c-.453-.0244-.906-.0854-1.359-.1709-.441-.1221-.907-.2441-1.274-.5493l.012-.0244c.441.0854.87.0976 1.298.061.429-.0122.858-.0488 1.286-.1098.833-.1343 1.739-.2076 2.437-.4883.821-.3052 1.678-.6103 2.572-.769.453-.0733.906-.1343 1.359-.1587.453.0122.918.0122 1.359.1465-.441.0976-.869.1953-1.273.354-.417.122-.821.2685-1.225.4272-.833.3296-1.616.647-2.425.9643-.967.3052-1.849.3418-2.767.3174zm.918 2.246c.368.0977.735.1709 1.115.2198.379.0854.759.1098 1.163.1709-.367.1709-.771.2441-1.176.3295-.404.0367-.808.0611-1.224.0489-.821-.0244-1.629-.2075-2.4-.5005-.368-.1587-.796-.4028-1.078-.5615-.318-.1709-.661-.3174-1.016-.4883l-1.066-.5005c-.343-.1953-.71-.3662-1.041-.6103l.013-.0244c.404.0366.783.1098 1.188.1465l1.163.2441c.392.0854.784.2075 1.163.3784.417.1953.662.3418 1.029.4639.722.2929 1.445.4882 2.167.6835zm-10.751-3.5765c.734-.1343 1.469-.2442 2.204-.4029.735-.122 1.469-.2563 2.192-.4028 1.457-.2929 2.902-.5737 4.323-.9277 1.432-.3296 2.841-.7324 4.224-1.2085.698-.2197 1.372-.5126 2.033-.8178.331-.1587.661-.3174.992-.4883.306-.1953.625-.3906.955-.5859-.257.2685-.526.5371-.796.8056-.294.2442-.6.4639-.894.6958-.636.4028-1.298.7935-1.983 1.1108-1.372.6592-2.829 1.1231-4.286 1.4648-1.482.3052-2.964.586-4.458.7202-.747.0611-1.494.0977-2.253.1343-.747-.0122-1.506 0-2.253-.0854v-.0122zm-4.495.6713l1.935-.0854c.662 0 1.36.0244 2.045.1831.686.1465 1.311.4028 1.911.6958.612.3051 1.163.6347 1.726.9887.539.3784 1.078.7446 1.58 1.1719-.625-.2564-1.212-.4883-1.812-.7324-.588-.2564-1.188-.5127-1.788-.6958-1.225-.415-2.376-.647-3.649-.5859-.649-.0245-1.25.0366-1.972.0122-.686-.0367-1.359-.1587-2.008-.3418-.649-.1953-1.262-.4273-1.874-.6958-.6-.293-1.175-.5859-1.739-.9155l.012-.0244c.649.122 1.274.3296 1.911.4638.624.1709 1.249.3052 1.873.4028.613.0855 1.237.1587 1.849.1587zm1.825 1.9043c-.38.2441-.784.415-1.188.5981-.416.1465-.832.293-1.261.4028-.857.232-1.763.3418-2.706.2564-.894-.1221-1.727-.2808-2.56-.4883-.416-.0976-.832-.1953-1.249-.2441-.416-.0977-.832-.1099-1.273-.1099.392-.2319.845-.3174 1.285-.3906.454-.0366.894-.0366 1.335-.0366.882.0244 1.751.1587 2.572.2563.784.1221 1.616.0366 2.461-.0244.417-.0244.845-.0732 1.274-.1343.428-.0366.833-.0854 1.298-.122l.012.0366zm-16.764-5.8226c.453.2685.906.476 1.408.6103.478.1587.967.2686 1.457.3418.49.0732.98.1099 1.457.1221.49.0122.907-.0733 1.47-.1465 1.065-.1099 2.155-.1221 3.208.1098.527.1099 1.041.2686 1.543.4517.49.2319.968.4516 1.372.8056-.502-.1464-1.004-.2685-1.506-.3295-.503-.0855-1.005-.1465-1.507-.1587-1.004-.0367-1.996 0-2.988.122-.465.0367-1.065.1221-1.616.0855-.551-.0366-1.09-.1343-1.616-.293-.515-.1709-1.017-.3784-1.482-.6469-.453-.293-.906-.6104-1.213-1.0498l.013-.0244zm-1.384 1.7455c.465.1099.894.2808 1.335.4151l1.286.4882c.857.3052 1.689.647 2.534.8545.845.2319 1.739.3784 2.633.5493.441.0855.894.1587 1.347.2197.453.0977.906.1465 1.372.232-.453.1464-.919.1953-1.384.2685-.465.0366-.943.0488-1.408.061-.943 0-1.886-.1098-2.817-.3417-.93-.293-1.8-.6592-2.62-1.1231l-1.188-.7446c-.38-.2807-.759-.5371-1.115-.8422l.025-.0367zm17.242 9.4236c-.625.0611-1.261.1709-1.898.1954-1.274.1098-2.547 0-3.821-.1587-1.261-.2198-2.51-.5127-3.71-.9888-.588-.2441-1.176-.5127-1.739-.8056-.551-.3296-1.09-.6714-1.58-1.062l.012-.0244c.613.1953 1.176.4516 1.776.6225.588.2075 1.176.3784 1.776.5249 1.2.293 2.388.5615 3.612.7324 1.212.1709 2.437.3052 3.674.3906.612.0733 1.237.0611 1.861.0977.625.0488 1.249.0244 1.886.0854-.6.1465-1.225.2686-1.849.3906zm.563-2.7343c-.881.2564-1.898.5738-2.902.6226-1.004.0976-2.008.0488-2.988-.0488-1.959-.2686-3.906-.6958-5.719-1.4893-.906-.4028-1.775-.8422-2.62-1.3061-.845-.5005-1.678-.9887-2.498-1.5136l.012-.0244c.918.3295 1.8.7324 2.706 1.0742.894.3784 1.788.7324 2.694 1.0375 1.8.5982 3.674 1.0132 5.547 1.2207.943.1099 1.886.1465 2.805.0977.943-.0245 1.8-.2442 2.804-.4395.98-.1587 1.959-.2563 2.939-.293.98.0245 1.984-.0244 2.914.3174-.955-.1098-1.922.0366-2.865.1831-.967.1221-1.91.3174-2.829.5615zm1.715.8789c.404-.1465.808-.2441 1.212-.3784l1.225-.2807c.82-.1831 1.653-.2808 2.51-.3296.882-.0122 1.641 0 2.486.0244.416.0122.832.0244 1.237.0244.416.0244.832.0488 1.249.0244-.368.2442-.796.3296-1.188.4761-.417.0976-.821.1831-1.237.2563-.82.1587-1.714.1831-2.498.2075-.808-.0122-1.629.0855-2.462.0977l-1.249.0122c-.428-.0366-.845-.0366-1.261-.1099l-.024-.0244zm12.956.293c-.515.3052-1.054.5371-1.605.7934-1.089.4761-2.253.7813-3.416 1.0132-1.176.1831-2.351.354-3.527.3662-.588 0-1.188-.0122-1.776-.0366-.587-.0611-1.175-.1099-1.763-.232V74.13c.612-.0854 1.163-.1709 1.739-.2563.575-.0611 1.151-.1465 1.727-.2442 1.138-.1831 2.277-.354 3.404-.5859 1.126-.2075 2.241-.4638 3.355-.7568.551-.1465 1.115-.293 1.653-.5005.564-.1465 1.09-.3906 1.666-.5615-.453.3906-.943.7324-1.457 1.0376zm5.89-5.1391c-.27.2076-.551.4029-.833.5738-.588.3417-1.225.5493-1.874.708-.649.1098-1.298.2319-1.959.2319-.331 0-.661-.0122-.992-.0366-.33-.0611-.661-.0855-.979-.1953v-.0367c.318-.1098.636-.1831.942-.2929.319-.0733.625-.1465.931-.232.612-.1709 1.225-.2807 1.825-.4394.6-.1343 1.2-.293 1.8-.4394.306-.0733.6-.1709.894-.2808.306-.0854.588-.2197.906-.3418-.184.3052-.416.5371-.661.7812z"/>
  </g>
  <path fill="#5B6670" d="M191.26 48.8128c-2.903-.9399-6.907 3.1005-8.658 6.4696-1.469-3.4423-4.702-7.4095-7.519-6.8724-3.453.6592-4.972 7.8367-4.286 11.4377.159.8057.429 1.5137.759 2.1728 2.952 1.001 6.442 1.6113 10.201 1.7212.257-.2808.49-.5737.698-.9033.208.3418.441.6469.71.9277 3.686-.0122 7.14-.5249 10.128-1.3916.293-.5127.563-1.062.771-1.6723 1.139-3.4911.539-10.803-2.804-11.8894z"/>
  <g fill="#fff">
    <path d="M176.614 85.1157c1.886 0 3.257 1.2329 3.257 3.1738 0 1.9409-1.371 3.1737-3.257 3.1737-1.886 0-3.258-1.2328-3.258-3.1737 0-1.9409 1.372-3.1738 3.258-3.1738zm0 5.1147c1.139 0 1.873-.8179 1.873-1.9409 0-1.123-.747-1.9409-1.873-1.9409-1.127 0-1.874.8179-1.874 1.9409 0 1.123.747 1.9409 1.874 1.9409z"/>
    <path d="M180.851 85.2622h2.241c1.249 0 2.29.4028 2.29 1.831 0 1.416-.968 1.8554-2.229 1.8554h-.967v2.356h-1.335v-6.0424zm1.335 2.5634h.881c.466 0 .943-.1587.943-.7202 0-.6225-.624-.708-1.139-.708h-.685v1.4282z"/>
    <path d="M187.476 86.4463h-1.727v-1.1719h4.776v1.1719h-1.727v4.8582h-1.322v-4.8582z"/>
    <path d="M191.26 85.2622h1.322v6.0424h-1.322v-6.0424z"/>
    <path d="M169.462 94.4048h2.253c1.054 0 2.205.2197 2.205 1.538 0 .6714-.417 1.1353-1.041 1.3306v.0122c.796.0976 1.322.6958 1.322 1.477 0 1.2694-1.187 1.6844-2.265 1.6844h-2.474v-6.0422zm1.323 2.4047h.967c.404 0 .833-.1709.833-.6591 0-.5005-.478-.6348-.894-.6348h-.906v1.2939zm0 2.5024h1.188c.416 0 .881-.1831.881-.708 0-.5737-.636-.6592-1.077-.6592h-1.004v1.3672h.012z"/>
    <path d="M175.059 94.4048h2.339c1.236 0 2.277.4272 2.277 1.831 0 .8423-.453 1.5014-1.298 1.6601l1.531 2.5511h-1.592l-1.261-2.4168h-.662v2.4168h-1.322v-6.0422h-.012zm1.334 2.4902h.784c.49 0 1.114-.0122 1.114-.6714 0-.6103-.551-.6958-1.028-.6958h-.87v1.3672z"/>
    <path d="M180.716 94.4048h4.102v1.2207h-2.767v1.123h2.62v1.2329h-2.62v1.2328h2.927v1.2328h-4.25v-6.0422h-.012z"/>
    <path d="M186.166 94.4048h4.102v1.2207H187.5v1.123h2.621v1.2329H187.5v1.2328h2.927v1.2328h-4.249v-6.0422h-.012z"/>
    <path d="M191.566 94.4048h1.996c1.947 0 3.576.83 3.576 3.0395 0 1.953-1.592 3.0027-3.392 3.0027h-2.168v-6.0422h-.012zm1.322 4.8094h.686c1.237 0 2.168-.4638 2.168-1.8432 0-1.184-.943-1.7455-2.07-1.7455h-.784v3.5887z"/>
    <path d="M183.961 61.7402c-.539-.7935-.747-1.7822-.71-2.7221.037-.94.257-1.8799.686-2.7099.832-1.6479 1.996-3.0883 3.416-4.2358.123-.0976.306-.0854.404.0366.074.0855.086.2076.037.3052l-.049.0855c-.845 1.6357-1.69 3.0761-2.29 4.5043-.294.6957-.477 1.3793-.661 2.0873-.184.708-.282 1.4038-.319 2.3681v.1465c0 .1465-.134.2685-.281.2685-.098-.0122-.184-.061-.233-.1342z"/>
    <path d="M175.34 62.8754l-.073-.1343c-.441-.8545-.686-1.5136-.87-2.2216-.183-.6958-.355-1.3794-.44-2.1362-.16-1.5381-.123-3.2104-.184-5.0414v-.0977c0-.1098-.074-.2075-.184-.2563-.147-.061-.318.0122-.367.1587-.686 1.6845-1.004 3.5033-.931 5.3587.037.9278.282 1.8677.723 2.7099.306.6104.747 1.1597 1.273 1.5991.343.0855.698.1587 1.053.232.025-.0611.025-.1221 0-.1709z"/>
  </g>
</svg>
