<svg xmlns="http://www.w3.org/2000/svg" fill="none" viewBox="0 0 104 104">
  <path fill="#fff" d="M52 104c28.7188 0 52-23.2812 52-52S80.7188 0 52 0-3.5e-7 23.2812-7.7e-7 52C-.0000012 80.7188 23.2812 104 52 104z"/>
  <g fill="#000">
    <path d="M35.1887 46.9307V30.9316H31.736v11.1169h-.0439l-6.6526-11.1169h-4.6952v15.9991h3.4527V35.5389h.044l6.8394 11.3918h4.5083z"/>
    <path d="M44.986 47.3377c4.3434 0 6.5976-2.8039 6.5976-6.5755v-9.8193h-3.4527v9.6873c0 1.9683-1.3305 3.4528-3.1449 3.4528-1.8363 0-3.1668-1.4955-3.1668-3.4528v-9.6873h-3.4527v9.8193c.011 3.7716 2.2652 6.5755 6.6195 6.5755z"/>
    <path d="M57.7962 46.9311h3.4527V34.055h4.4754v-3.1229H53.3319v3.1229h4.4643v12.8761z"/>
    <path d="M79.4363 35.7923c0-3.7276-2.705-4.8602-5.9048-4.8602h-6.0587v15.9881h3.4527v-6.3887h1.7044l3.2767 6.3887h4.1345l-3.9805-6.7515c2.2101-.4069 3.3757-2.1442 3.3757-4.3764zm-6.4766 1.7594h-2.0342V33.912h2.2541c1.2646 0 2.683.2529 2.683 1.8473-.011 1.7484-1.6493 1.7924-2.9029 1.7924z"/>
    <path d="M85.2089 30.9321h-3.4527v15.9881h3.4527V30.9321z"/>
    <path d="M30.9993 64.3708h5.5089c2.3971 0 5.0581-.9456 5.0581-3.8156 0-1.7813-1.1765-3.1228-2.9469-3.3537v-.044c1.3855-.4508 2.3201-1.4954 2.3201-3.0239 0-2.9908-2.562-3.4857-4.9261-3.4857h-5.0141v13.7229zm2.9689-11.1718h2.0122c.9347 0 2.0013.2859 2.0013 1.4404 0 1.0996-.9457 1.4955-1.8583 1.4955h-2.1442V53.199h-.011zm0 5.4869h2.2431c.9677 0 2.3971.209 2.3971 1.5175 0 1.1985-1.0446 1.6054-1.9792 1.6054h-2.661v-3.1229z"/>
    <path d="M46.2508 50.6367h-2.9689v13.7339h2.9689V50.6367z"/>
    <path d="M59.2259 54.8042c0-3.1998-2.3202-4.1675-5.0801-4.1675h-5.2121v13.7339h2.9689v-5.487h1.4625l2.8149 5.487h3.5517l-3.4197-5.7949c1.9132-.3518 2.9139-1.8473 2.9139-3.7715zm-5.564 1.5174h-1.7483v-3.1228h1.9353c1.0886 0 2.2981.2089 2.2981 1.5944 0 1.4844-1.4075 1.5284-2.4851 1.5284z"/>
    <path d="M61.2709 50.6367v13.7339h4.8492c4.0135 0 7.5652-2.3861 7.5652-6.8285 0-5.0251-3.6286-6.9054-7.961-6.9054h-4.4534zm9.3246 6.7515c0 3.1228-2.0673 4.1894-4.8272 4.1894h-1.5395v-8.1479h1.7484c2.507 0 4.6183 1.2645 4.6183 3.9585z"/>
    <path d="M34.4742 68.3179h-5.9598c-.11 0-.1979.0879-.1979.1979V78.599c0 .11.0879.198.1979.198h1.0006c.11 0 .1979-.088.1979-.198v-4.5743h4.3984c.11 0 .1979-.0879.1979-.1979v-.9456c0-.11-.0879-.198-.1979-.198h-4.3984v-3.0238h4.7503c.1099 0 .1979-.088.1979-.198v-.9346c.022-.121-.066-.2089-.1869-.2089z"/>
    <path d="M39.0704 71.5615c-2.1222 0-3.6616 1.5614-3.6616 3.7056s1.5394 3.7056 3.6616 3.7056c2.1332 0 3.6837-1.5614 3.6837-3.7056-.011-2.1442-1.5505-3.7056-3.6837-3.7056zm0 6.1577c-1.3305 0-2.2541-1.0116-2.2541-2.4411 0-1.4404.9236-2.452 2.2541-2.452 1.3525 0 2.2652.9786 2.2652 2.452 0 1.4735-.9127 2.4411-2.2652 2.4411z"/>
    <path d="M48.0319 71.6605c-.2199-.066-.4618-.099-.7367-.099-.8907 0-1.5285.3959-1.9243.9017v-.5168c0-.11-.088-.1979-.1979-.1979h-.9127c-.055 0-.11.0219-.1429.0659-.033.044-.055.088-.055.143l.022.8467c.011.4728.033.8356.033 1.2315v4.5853c0 .1099.0879.1979.1979.1979h.9236c.11 0 .198-.088.198-.1979v-3.7606c0-.8027.5608-1.9353 1.8253-1.9353.2529 0 .3848.033.4618.055.055.022.121.011.165-.011.0549-.033.0879-.077.0989-.143l.187-.9236c.0109-.11-.044-.2089-.143-.2419z"/>
    <path d="M56.3889 71.5615c-.8577 0-1.6714.4399-2.1332 1.1436-.4179-.7367-1.1546-1.1436-2.0892-1.1436-.7258 0-1.4405.3189-1.9353.8247v-.4508c0-.11-.088-.1979-.1979-.1979h-.9897c-.055 0-.1099.022-.1429.0659-.033.044-.055.099-.055.154l.022.3848c.022.3739.044.7258.044 1.0886v5.1901c0 .1099.0879.1979.1979.1979h.9237c.1099 0 .1979-.088.1979-.1979v-3.4197c0-2.2982 1.4734-2.3642 1.6384-2.3642 1.0556 0 1.4404.5168 1.4404 1.8913v3.8926c0 .1099.088.1979.198.1979h.9236c.11 0 .1979-.088.1979-.1979v-3.5517c0-.6707.165-2.2322 1.6384-2.2322 1.0556 0 1.4405.5168 1.4405 1.8913v3.8926c0 .1099.088.1979.1979.1979h.9237c.1099 0 .1979-.088.1979-.1979v-4.2334c.022-1.8254-.9237-2.826-2.639-2.826z"/>
    <path d="M66.7909 77.1368v-5.2011c0-.1099-.0879-.1979-.1979-.1979h-.9237c-.1099 0-.1979.088-.1979.1979v3.4197c0 2.3312-1.7043 2.3641-1.7813 2.3641-1.1436 0-1.5724-.5717-1.5724-2.0892v-3.6836c0-.1099-.088-.1979-.198-.1979h-.9346c-.11 0-.1979.088-.1979.1979v4.2334c0 1.8143.9456 2.804 2.661 2.804.7477 0 1.5174-.3409 2.0232-.8797.011.1759.022.3519.033.5278.011.099.099.1759.1979.1759h.9457c.055 0 .1099-.022.1429-.0659.033-.044.055-.099.055-.154l-.011-.2639c-.022-.4178-.044-.9016-.044-1.1875z"/>
    <path d="M69.8809 67.6362h-.9237c-.11 0-.1979.088-.1979.198v10.7649c0 .11.0879.198.1979.198h.9237c.1099 0 .1979-.088.1979-.198V67.8342c0-.11-.088-.198-.1979-.198z"/>
    <path d="M77.4021 74.1346c0-1.5615-1.0117-2.5731-2.5951-2.5731-1.2535 0-2.2651.3519-2.9139 1.0336-.066.077-.0769.187-.011.2749l.5608.6708c.033.044.088.066.143.0769.0549 0 .1099-.0109.1539-.0549.5278-.4838 1.1546-.7258 1.8583-.7258 1.0116 0 1.4625.4619 1.4735 1.4845h-.253c-1.1655 0-4.2664 0-4.2664 2.5071 0 1.4844 1.2756 2.1551 2.4521 2.1551.9237 0 1.6274-.2859 2.1442-.8906.011.1979.033.3848.066.5498.022.0989.099.1649.1979.1649h.8907c.055 0 .11-.022.1539-.066.044-.0439.055-.1099.044-.1649-.055-.3519-.1099-.9566-.1099-1.4625v-2.9798h.011zm-1.5944 1.3525h.2748v.2858c0 .9457-.4728 1.9463-1.7813 1.9463-.2199 0-1.3305-.044-1.3305-1.0226 0-.8027.9567-1.2095 2.837-1.2095z"/>
  </g>
  <path fill="#5B6670" d="M72.047 91.2994l-4.6953-1.1656c-.3079.121-.6378.2419-.9566.3629-1.2206.4398-2.4521.8247-3.6837 1.1436-.0439.011-.0769.022-.1209.033-1.1216.2859-2.2542.5278-3.3757.7147-.143.022-.2859.055-.4399.077-1.1765.1869-2.3641.3188-3.5407.3958-.0769.011-.1649.011-.2419.022-1.0666.066-2.1332.088-3.1888.066-.3628 0-.7257-.011-1.0886-.033-.3408-.011-.6927-.033-1.0336-.055l-.8577-.066c-.4288-.033-.8576-.0769-1.2865-.1319-.1759-.022-.3408-.044-.5058-.066-.5278-.066-1.0556-.1429-1.5834-.2419-.033-.011-.066-.011-.099-.022-1.8583-.3299-3.6946-.7807-5.4869-1.3635-.077-.022-.1649-.055-.2419-.0769-.8137-.264-1.6164-.5498-2.4081-.8687-15.0974-6.0368-25.7634-20.7822-25.7634-38.0348 0-22.6185 18.3412-40.9597 40.9597-40.9597V3.00244c-27.0169 0-48.99766 21.98076-48.99766 48.99766 0 22.3326 15.07536 41.8393 36.67126 47.4362 4.0135 1.0447 8.159 1.5617 12.3374 1.5617v-.088c5.5529 0 11.2048-.9349 16.7247-2.9471.055-.022.099-.044.154-.066l3.4417-4.7502c.4838-.6707.1319-1.6384-.6927-1.8473z"/>
  <path fill="#00AFCD" d="M94.4237 70.4622c-.055-.8467-.9567-1.3635-1.7154-.9896l-4.3434 2.1222c-.1649.2969-.3299.5938-.4948.8907-.6488 1.1215-1.3525 2.2101-2.0892 3.2438-.022.0329-.044.0659-.077.1099-.6707.9457-1.3855 1.8473-2.1222 2.716-.099.11-.1869.2309-.2859.3409-.7807.9016-1.6054 1.7593-2.4521 2.584-.0549.055-.1209.11-.1759.1649-3.7606 3.5957-8.126 6.3777-12.8212 8.2909-.077.033-.1539.066-.2309.099-.7257.2859-1.4625.5608-2.1992.8027.3299-.11.6708-.2199 1.0006-.3409.3189-.1099.6378-.2419.9567-.3628l4.6952 1.1655c.8247.2089 1.1766 1.1766.6818 1.8583L69.32 97.886c10.3692-3.8046 19.5067-11.1169 25.4665-21.431.033-.044.055-.099.077-.143l-.4398-5.8498z"/>
  <path fill="#009B82" d="M87.8701 72.4851c.1649-.2969.3409-.5938.4948-.8907l4.3434-2.1222c.7587-.3739 1.6604.1429 1.7154.9896l.4178 5.8278c5.4865-9.5774 7.7965-21.0571 5.7285-32.7787-.011-.055-.022-.11-.033-.1649l-4.0791-4.2115c-.5938-.6047-1.6054-.4288-1.9463.3409l-1.9682 4.4204c.0659.3298.1319.6707.1869 1.0006.2309 1.2755.3848 2.562.4838 3.8266 0 .0439.011.0879.011.1209.088 1.1546.121 2.3092.121 3.4527v.4399c-.022 1.1985-.099 2.3751-.22 3.5516-.011.077-.011.165-.022.2419-.5717 5.1681-2.1222 10.1053-4.4973 14.5916-.044.077-.0769.1539-.1209.2199-.3739.6927-.7587 1.3635-1.1656 2.0342.1869-.2968.3739-.5937.5498-.8906z"/>
  <path fill="#00B04C" d="M92.4773 43.6212c.165.7697.2969 1.5395.4069 2.3092-.055-.3519-.099-.6928-.1539-1.0446-.055-.3299-.121-.6708-.187-1.0007l1.9683-4.4203c.3409-.7697 1.3635-.9566 1.9463-.3409l4.0571 4.2005c-1.9569-10.864-7.5648-21.1451-16.6804-28.7983-.044-.033-.088-.0659-.132-.1099l-5.8278-.6048c-.8467-.088-1.5064.7037-1.2755 1.5174l1.3305 4.6513c.2639.2089.5278.4288.7917.6487 1.0006.8357 1.9353 1.7154 2.8369 2.6171.033.033.066.0549.088.0879.8137.8247 1.5724 1.6824 2.3091 2.5621.099.1099.187.2309.2859.3408.7478.9237 1.4515 1.8803 2.1112 2.859.044.066.088.1319.132.1979 2.8809 4.3324 4.8712 9.1046 5.9378 14.0637.022.099.044.187.0549.2639z"/>
  <path fill="#77C043" d="M78.7213 20.6288c-.2639-.22-.5278-.4399-.7917-.6488l-1.3305-4.6513c-.2309-.8136.4288-1.6053 1.2755-1.5174l5.8058.6048C75.2136 7.35673 64.3057 3.09033 52.3972 3.09033h-.165L47.372 6.3781c-.7037.47282-.7037 1.50644 0 1.97926l4.0025 2.70494c.3299-.0109.6818-.0109 1.0227-.0109 1.2975 0 2.584.0659 3.8595.1869.044 0 .088.011.121.011 1.1545.1099 2.2871.2749 3.4197.4838.1429.022.2969.055.4398.077 1.1766.2309 2.3311.5058 3.4637.8357.077.0219.154.0439.2309.0659 4.9922 1.4625 9.5885 3.8486 13.591 6.9604.0659.055.1319.11.1979.154.6157.4838 1.2095.9896 1.8033 1.5064-.2749-.2419-.5278-.4838-.8027-.7037z"/>
</svg>
