<svg viewBox="0 0 226 116" fill="none" xmlns="http://www.w3.org/2000/svg">
<path d="M85.9078 11.44H80.9218V14.032H83.2078V16.102C82.6858 16.39 81.7858 16.732 80.5618 16.732C78.1678 16.732 76.6018 15.004 76.6018 12.628C76.6018 10.252 78.1678 8.524 80.5618 8.524C81.9838 8.524 82.9018 8.938 83.6578 9.73L85.6378 7.57C84.3598 6.382 82.5778 5.932 80.5618 5.932C76.5838 5.932 73.6858 8.542 73.6858 12.628C73.6858 16.714 76.5838 19.324 80.5618 19.324C82.4338 19.324 84.2518 18.964 85.9078 18.1V11.44ZM88.0196 19H90.8276V13.906H92.2136L94.8776 19H98.2436L95.0036 13.618C96.8036 13.294 97.7576 11.908 97.7576 10.126C97.7576 7.156 95.5616 6.256 92.9516 6.256H88.0196V19ZM90.8276 8.632H92.6636C93.6896 8.632 94.8416 8.83 94.8416 10.108C94.8416 11.494 93.5096 11.53 92.4836 11.53H90.8276V8.632ZM98.6475 12.628C98.6475 16.714 101.545 19.324 105.523 19.324C109.501 19.324 112.399 16.714 112.399 12.628C112.399 8.542 109.501 5.932 105.523 5.932C101.545 5.932 98.6475 8.542 98.6475 12.628ZM101.563 12.628C101.563 10.252 103.129 8.524 105.523 8.524C107.917 8.524 109.483 10.252 109.483 12.628C109.483 15.004 107.917 16.732 105.523 16.732C103.129 16.732 101.563 15.004 101.563 12.628ZM116.396 19H118.808L121.616 10.18H121.652L124.46 19H126.962L130.688 6.256H127.844L125.702 14.644H125.666L123.02 6.256H120.41L117.746 14.428H117.71L115.676 6.256H112.616L116.396 19ZM134.054 19H136.862V8.74H140.498V6.256H130.418V8.74H134.054V19ZM141.564 19H144.372V13.492H149.826V19H152.634V6.256H149.826V11.008H144.372V6.256H141.564V19Z" fill="#5B6670"/>
<rect x="1" y="29" width="224" height="86" rx="7" stroke="#5B6670" stroke-width="2"/>
<path d="M64.3259 40H48.6269H21.6619H12V49.5701V73.5564V94.4177C12 99.691 16.3472 104 21.6619 104H40.1529H64.3259H73.9878V86.8129V57.1627V49.5701C74 44.309 69.6405 40 64.3259 40Z" fill="white" stroke="#1D1D1B" stroke-width="2"/>
<path d="M64.3259 81.2827H46.937H19.9597H12V90.8528V81.356V94.4172C12 99.6783 16.3472 103.987 21.6619 103.987H38.463H62.538H74V94.6125V98.4454V90.8528C74 85.5917 69.6528 81.2827 64.3259 81.2827Z" fill="#1D1D1B"/>
<path d="M37.1771 85.0059C39.0752 85.0059 40.459 86.2509 40.459 88.204C40.459 90.1571 39.0752 91.4022 37.1771 91.4022C35.2791 91.4022 33.9075 90.1571 33.9075 88.204C33.9075 86.2509 35.2913 85.0059 37.1771 85.0059ZM37.1771 90.1571C38.316 90.1571 39.063 89.3393 39.063 88.204C39.063 87.0688 38.316 86.2509 37.1771 86.2509C36.0383 86.2509 35.2913 87.0688 35.2913 88.204C35.2913 89.3393 36.0383 90.1571 37.1771 90.1571Z" fill="white"/>
<path d="M41.4509 85.1528H43.7041C44.9654 85.1528 46.0063 85.5557 46.0063 86.9961C46.0063 88.4242 45.0389 88.8637 43.7654 88.8637H42.7857V91.2318H41.4509V85.1528ZM42.798 87.7285H43.6919C44.1695 87.7285 44.6348 87.5698 44.6348 86.9961C44.6348 86.3735 43.998 86.2881 43.4837 86.2881H42.798V87.7285Z" fill="white"/>
<path d="M48.1249 86.3369H46.386V85.1528H51.1863V86.3369H49.4597V91.2318H48.1249V86.3369Z" fill="white"/>
<path d="M51.9332 85.1528H53.268V91.2318H51.9332V85.1528Z" fill="white"/>
<path d="M28.6664 94.3569H30.6747C32.634 94.3569 34.2627 95.187 34.2627 97.4086C34.2627 99.3739 32.6585 100.436 30.8462 100.436H28.6542V94.3569H28.6664ZM30.0012 99.203H30.6992C31.9483 99.203 32.8789 98.727 32.8789 97.3476C32.8789 96.1513 31.9238 95.5898 30.7972 95.5898H30.0134V99.203H30.0012Z" fill="white"/>
<path d="M35.2423 94.3569H36.5771V100.436H35.2423V94.3569Z" fill="white"/>
<path d="M43.3857 100.009C42.602 100.424 41.7325 100.595 40.8386 100.595C38.9405 100.595 37.569 99.3495 37.569 97.3964C37.569 95.4433 38.9527 94.1982 40.8386 94.1982C41.806 94.1982 42.6509 94.418 43.2632 94.9795L42.3203 96.0048C41.9652 95.6264 41.5243 95.4311 40.8386 95.4311C39.6997 95.4311 38.9527 96.249 38.9527 97.3842C38.9527 98.5194 39.6997 99.3373 40.8386 99.3373C41.4264 99.3373 41.855 99.1786 42.0999 99.0321V98.0678H41.01V96.8349H43.3857V100.009Z" fill="white"/>
<path d="M44.696 94.3569H48.8228V95.5898H46.0307V96.725H48.6636V97.9579H46.0307V99.1908H48.9697V100.424H44.6837V94.3569H44.696Z" fill="white"/>
<path d="M53.1334 95.8462C52.913 95.5776 52.4844 95.4433 52.166 95.4433C51.7864 95.4433 51.2598 95.6142 51.2598 96.0659C51.2598 97.1767 54.0518 96.4565 54.0518 98.5927C54.0518 99.9476 52.9619 100.595 51.7129 100.595C50.9292 100.595 50.2434 100.363 49.6678 99.8256L50.623 98.7758C50.8924 99.1298 51.3455 99.3495 51.7864 99.3495C52.2272 99.3495 52.717 99.142 52.717 98.7147C52.717 97.6039 49.8638 98.2021 49.8638 96.1757C49.8638 94.8818 50.9904 94.1982 52.1782 94.1982C52.864 94.1982 53.5252 94.3813 54.0396 94.833L53.1334 95.8462Z" fill="white"/>
<path d="M56.3173 95.541H54.5784V94.3569H59.3787V95.541H57.652V100.436H56.3173V95.541Z" fill="white"/>
<path d="M38.9774 61.0684C38.61 61.0684 38.2181 61.166 37.8508 61.4346C37.5569 61.6543 37.2507 61.9839 37.4222 62.3379C37.6181 62.7285 38.2671 63.0214 39.0753 63.0947C38.9651 62.6186 39.259 62.0083 40.0305 61.6421C40.1407 61.5932 40.2387 61.5322 40.3489 61.4834C40.1897 61.3857 40.0182 61.3003 39.8346 61.227C39.6019 61.1416 39.308 61.0684 38.9774 61.0684Z" fill="#1D1D1B"/>
<path d="M54.8354 45.0288C54.517 44.8702 54.2843 44.5528 54.0027 44.3453C53.6721 44.1011 53.3414 43.8204 52.9618 43.6983C50.3412 42.8438 46.5696 44.0035 45.0143 46.2617C44.4878 47.0185 44.1327 47.9951 44.0224 48.8984C43.7041 51.4374 42.3693 53.2318 40.2998 54.6356C38.316 55.9905 36.3811 57.4309 34.483 58.8957C32.1319 60.7023 30.5522 63.1803 28.948 65.5972C28.0785 66.9156 27.3438 68.3193 26.5846 69.7109C26.4621 69.9428 26.5111 70.2602 26.4866 70.541C26.7683 70.5288 27.0989 70.602 27.3438 70.5043C28.0908 70.1992 28.8133 69.833 29.7684 69.3813C28.5439 71.6762 27.405 73.8246 26.2172 76.0584C26.6213 76.1072 26.8417 76.1316 27.1111 76.1683C25.8621 78.1213 24.6497 80.0134 23.4374 81.9177C23.5231 82.0153 23.5966 82.113 23.6823 82.2228C25.409 81.3073 27.1479 80.3918 29.0215 79.4031C26.058 86.3243 24.3681 93.6728 19.9841 99.8982C20.0454 99.9592 20.1066 100.032 20.1678 100.094C20.5107 99.9104 20.8903 99.7761 21.1965 99.532C23.1068 98.0061 24.4906 96.0531 25.6661 93.9535C28.5806 88.7534 31.5196 83.5778 34.3483 78.3411C35.3647 76.449 36.9077 75.5946 38.9282 75.265C39.6997 75.1429 40.2753 75.3016 40.7039 75.9974C40.9365 76.3758 41.3039 76.6565 41.5733 77.0105C41.757 77.2425 42.0386 77.5843 41.9774 77.7674C41.8794 78.0481 41.5488 78.3533 41.2672 78.4265C40.5814 78.6218 39.8467 78.6829 39.1364 78.8171C38.965 78.8538 38.818 78.9514 38.6343 79.0247C39.3446 79.5007 41.3896 79.5007 42.3325 78.9758C42.8714 78.6829 43.2877 78.6218 43.8143 79.0247C44.1204 79.2566 44.598 79.3176 45.0021 79.3298C46.0307 79.3542 47.0594 79.2566 48.088 79.281C48.7126 79.2932 49.3371 79.4519 50.1086 79.5617C50.378 79.1955 50.1331 78.8782 49.5575 78.7683C48.5166 78.573 47.4757 78.4387 46.4348 78.28C45.896 78.2068 45.3572 78.1458 44.8184 78.0969C43.6918 77.9749 43.251 77.3401 43.4469 76.1927C43.4959 75.9241 43.5204 75.6556 43.5326 75.387C43.5571 74.6058 43.9122 74.0931 44.5858 73.6415C46.9859 72.0546 49.1656 70.2358 50.9168 67.9409C53.4394 64.6329 54.5048 60.9953 53.4149 56.906C52.9251 55.0628 53.0965 53.2318 53.3414 51.4008C54.8354 51.12 55.2028 50.8759 56.0845 49.7407C56.1947 50.5463 56.3049 51.3519 56.4151 52.1454C58.2764 50.0214 57.4805 46.335 54.8354 45.0288ZM51.5658 54.5013C52.1169 55.7952 52.6679 56.8084 51.3086 57.6506C50.2922 58.2732 49.4963 57.4431 48.8105 57.0647C48.4554 57.7605 48.3329 58.1877 48.1982 59.1276C48.0758 60.0065 47.4635 60.3605 47.3655 60.9953C48.0758 61.6056 48.5166 62.4967 48.2227 63.2413C47.9656 63.9249 47.341 64.3277 46.8145 64.2057C46.3001 64.6207 45.394 64.7061 44.9041 64.047C44.2429 63.1803 44.4143 62.3502 44.7449 61.5812C44.7327 61.5812 44.7327 61.5812 44.7205 61.5812C44.3776 61.4591 44.0224 61.6789 43.3612 62.1183C42.9938 62.3624 42.5775 62.631 42.0754 62.8873C42.4672 64.3643 42.9816 65.0357 44.4755 64.8526C45.394 64.7428 46.1165 64.9503 46.4226 65.4385C46.594 65.7071 46.594 66.0123 46.4471 66.2564C46.2389 66.586 45.7981 66.7447 45.247 66.6836C44.3041 66.5738 43.5081 66.0733 42.8101 65.6338C42.3693 65.3653 41.9652 65.0967 41.5856 64.9747C41.0835 64.816 40.7528 64.9136 40.6181 65.0601C40.5324 65.1456 40.5202 65.2432 40.5569 65.3531C40.6426 65.5972 41.0222 65.8902 41.8427 65.9756C44.1694 66.2442 45.5042 66.7569 45.5899 67.4038C45.6144 67.5381 45.6021 67.8677 45.0878 68.0752C44.5735 68.2827 43.9122 67.9531 43.1408 67.5747C42.5897 67.3062 41.9774 66.9888 41.3774 66.8667C40.8263 66.7569 40.5202 66.8667 40.4467 66.9522C40.4345 66.9644 40.4222 66.9766 40.4467 67.0132C40.5202 67.1597 40.9365 67.4527 41.9774 67.4649C43.0673 67.4771 44.0347 67.9775 44.2429 68.6245C44.3408 68.9541 44.2184 69.2592 43.9122 69.479C43.5081 69.7475 42.9081 69.6987 42.2713 69.601C42.2468 69.601 42.2346 69.601 42.2223 69.601C40.8998 69.479 40.0916 69.6865 40.0793 70.5776C40.0671 71.0536 40.0181 71.6762 39.5773 72.2255C39.1364 72.7748 39.3568 73.3363 39.3936 73.5804C39.4303 73.8246 38.267 73.8856 38.0343 73.3607C37.8996 73.0555 38.3159 73.2753 38.2915 72.6527C38.267 72.14 38.12 71.5907 38.5241 70.7729C38.9282 69.955 39.3691 69.3569 40.2263 69.1128C40.6059 69.0029 41.0345 69.0029 41.4386 69.0517C41.708 69.0639 41.9652 69.1006 42.2223 69.1372C42.8224 69.2226 43.3857 69.2959 43.6673 69.1006C43.851 68.9663 43.8388 68.8442 43.8143 68.7588C43.7041 68.417 43.0183 67.9287 41.9897 67.9165C40.9855 67.9043 40.263 67.648 40.0426 67.2085C39.9446 67.0254 39.9691 66.8179 40.0916 66.6592C40.312 66.3662 40.8386 66.2686 41.4876 66.4029C42.1489 66.5371 42.7979 66.8545 43.3734 67.1475C44.0102 67.4649 44.6102 67.77 44.9409 67.6357C45.0756 67.5747 45.1735 67.5015 45.1613 67.4527C45.1368 67.2695 44.4878 66.7202 41.8182 66.4151C40.9365 66.3174 40.3242 65.9756 40.1528 65.4874C40.0548 65.2188 40.1161 64.9259 40.3242 64.7183C40.6304 64.401 41.1692 64.3277 41.7692 64.523C42.2101 64.6573 42.6387 64.9381 43.104 65.231C43.7898 65.6705 44.5123 66.1099 45.345 66.2076C45.7736 66.2564 46.0185 66.1343 46.1042 66C46.1654 65.9024 46.1532 65.7925 46.0797 65.6705C45.9205 65.4141 45.443 65.1944 44.5735 65.2921C42.6632 65.5362 42.0509 64.4376 41.6835 63.0704C41.4631 63.1681 41.2182 63.2413 40.9733 63.3268C40.4957 63.6075 40.0916 63.8028 39.9446 63.7784C39.7365 63.7418 39.5773 63.6686 39.4426 63.5709C38.3527 63.5587 37.373 63.1925 37.0546 62.5577C36.9444 62.3258 36.7607 61.7155 37.6179 61.0807C38.3037 60.5802 39.1364 60.4826 40.0426 60.8122C40.3365 60.922 40.6181 61.0807 40.8753 61.2516C41.7937 60.7756 42.5285 60.3849 43.1775 60.568C44.0102 60.8 44.2306 59.9455 44.0959 59.6647C44.0102 59.4938 43.949 59.2863 43.949 59.0666C43.6306 58.7614 43.2142 58.8591 42.5652 58.5295C41.9162 58.1999 41.9897 57.5286 42.4183 56.9548C42.1978 56.491 42.2346 56.1492 42.3693 55.8929L42.2223 55.6487C41.9897 55.4046 41.708 55.1849 42.0631 54.6966C42.4795 54.1351 43.4102 54.2816 44.6102 54.782C45.8348 55.2947 46.2634 57.0647 46.2757 57.4309C46.2879 57.7849 45.6021 58.1389 45.5042 58.5661C45.4185 58.9445 45.0756 58.7614 44.6837 58.969C44.5858 59.091 44.4878 59.1887 44.3898 59.2497C44.2551 59.6647 44.7082 60.2995 44.647 60.5314C44.5735 60.8 44.0959 60.7756 43.6183 61.3737C43.5816 61.4225 43.4959 61.4958 43.4347 61.569C43.9735 61.2272 44.4266 60.9953 44.9041 61.1662C44.9409 61.1784 44.9531 61.2028 44.9776 61.2272C45.2838 60.7878 45.7981 60.4948 46.3491 60.5192C46.6185 60.1286 46.5451 59.6403 46.692 59.2497C47.0104 58.3952 47.6472 58.0534 48.1003 56.906C47.439 56.8816 46.6675 57.0037 46.2144 55.8684C45.6389 54.4158 47.8186 53.9032 48.5778 53.1952C50.1208 51.7426 50.4025 49.9604 52.6312 49.2158L52.6802 49.9848C49.7412 51.767 51.0147 53.1952 51.5658 54.5013Z" fill="#1D1D1B"/>
<path d="M134.326 40H118.627H91.6619H82V49.5701V73.5564V94.4177C82 99.691 86.3472 104 91.6619 104H110.153H134.326H143.988V86.8129V57.1627V49.5701C144 44.309 139.641 40 134.326 40Z" fill="white" stroke="#1D1D1B" stroke-width="2"/>
<path d="M134.326 81.2827H116.937H89.9597H82V90.8528V81.356V94.4172C82 99.6783 86.3472 103.987 91.6619 103.987H108.463H132.538H144V94.6125V98.4454V90.8528C144 85.5917 139.653 81.2827 134.326 81.2827Z" fill="#1D1D1B"/>
<path d="M103.528 55.8562C102.989 55.9782 102.401 56.0271 103.454 55.4289C104.777 54.6843 106.589 54.0618 107.765 53.7078C108.096 52.9632 108.353 52.2308 108.573 51.5228C107.667 51.7303 106.32 52.0354 105.806 52.1941C105.34 52.3406 105.095 52.2308 106.063 51.6204C106.859 51.1199 108.181 50.5462 108.941 50.241C109.945 46.225 109.553 43.1855 109.553 43.1855C109.553 43.1855 104.961 44.5649 100.54 48.4711C100.65 49.2645 100.809 50.6561 100.687 51.1444C100.479 51.9988 100.442 51.3519 100.283 50.6805C100.222 50.4364 100.013 49.7284 99.8175 49.118C97.7724 51.0711 95.8254 53.5857 94.4538 56.7839C92.3108 61.8008 92.4088 66.769 92.4088 66.769C92.4088 66.769 90.1801 72.2132 89.8005 73.6902C89.4209 75.1672 89.9474 74.8254 90.3515 73.7024C90.5964 72.9944 92.1639 68.5146 94.7232 63.4121C96.9397 58.9933 99.1439 55.3679 101.569 52.5237C101.569 52.5237 103.503 50.2899 103.81 50.0457C104.116 49.8016 105.928 48.0438 104.201 50.3631C102.475 52.6824 97.8337 58.6637 94.1354 66.7324C94.1354 66.7324 99.793 64.2544 104.128 59.3839C105.34 58.029 106.283 56.6252 107.03 55.2336C105.683 55.4533 104.091 55.7219 103.528 55.8562Z" fill="#1D1D1B"/>
<path d="M117.574 55.8562C117.035 55.9782 116.447 56.0271 117.5 55.4289C118.823 54.6843 120.635 54.0618 121.811 53.7078C122.141 52.9632 122.399 52.2308 122.619 51.5228C121.713 51.7303 120.366 52.0354 119.851 52.1941C119.386 52.3406 119.141 52.2308 120.109 51.6204C120.905 51.1199 122.227 50.5462 122.986 50.241C123.99 46.225 123.599 43.1855 123.599 43.1855C123.599 43.1855 119.006 44.5649 114.586 48.4711C114.696 49.2645 114.855 50.6561 114.733 51.1444C114.525 51.9988 114.488 51.3519 114.329 50.6805C114.267 50.4364 114.059 49.7284 113.863 49.118C111.818 51.0711 109.871 53.5857 108.5 56.7839C106.357 61.8008 106.455 66.769 106.455 66.769C106.455 66.769 104.226 72.2132 103.846 73.6902C103.467 75.1672 103.993 74.8254 104.397 73.7024C104.642 72.9944 106.21 68.5146 108.769 63.4121C110.986 58.9933 113.19 55.3679 115.614 52.5237C115.614 52.5237 117.549 50.2899 117.855 50.0457C118.162 49.8016 119.974 48.0438 118.247 50.3631C116.521 52.6824 111.879 58.6637 108.181 66.7324C108.181 66.7324 113.839 64.2544 118.174 59.3839C119.386 58.029 120.329 56.6252 121.076 55.2336C119.729 55.4533 118.137 55.7219 117.574 55.8562Z" fill="#1D1D1B"/>
<path d="M131.632 55.8562C131.093 55.9782 130.505 56.0271 131.558 55.4289C132.881 54.6843 134.693 54.0618 135.869 53.7078C136.199 52.9632 136.457 52.2308 136.677 51.5228C135.771 51.7303 134.424 52.0354 133.91 52.1941C133.444 52.3406 133.199 52.2308 134.167 51.6204C134.963 51.1199 136.285 50.5462 137.044 50.241C138.049 46.225 137.657 43.1855 137.657 43.1855C137.657 43.1855 133.065 44.5649 128.644 48.4711C128.754 49.2645 128.913 50.6561 128.791 51.1444C128.583 51.9988 128.546 51.3519 128.387 50.6805C128.325 50.4364 128.117 49.7284 127.921 49.118C125.876 51.0711 123.929 53.5857 122.558 56.7839C120.415 61.8008 120.513 66.769 120.513 66.769C120.513 66.769 118.284 72.2132 117.904 73.6902C117.525 75.1672 118.051 74.8254 118.455 73.7024C118.7 72.9944 120.268 68.5146 122.827 63.4121C125.044 58.9933 127.248 55.3679 129.673 52.5237C129.673 52.5237 131.607 50.2899 131.913 50.0457C132.22 49.8016 134.032 48.0438 132.305 50.3631C130.579 52.6824 125.938 58.6637 122.239 66.7324C122.239 66.7324 127.897 64.2544 132.232 59.3839C133.444 58.029 134.387 56.6252 135.134 55.2336C133.775 55.4533 132.195 55.7219 131.632 55.8562Z" fill="#1D1D1B"/>
<path d="M124.039 67.416H122.668C122.533 67.7334 122.398 68.063 122.264 68.4048C121.333 70.6508 120.341 73.2142 119.998 74.1541C119.704 74.9964 119.202 76.0706 118.112 76.1683C118.112 76.1683 117.721 76.2537 117.39 76.1072C117.059 75.9607 116.778 75.6312 116.778 75.6312C116.202 74.9598 116.361 74.0931 116.557 73.3363C116.802 72.3964 117.672 70.1381 118.357 68.4048C118.504 68.0508 118.627 67.7212 118.749 67.416H117.365H110.043H108.683C108.549 67.7334 108.414 68.063 108.279 68.4048C107.348 70.6508 106.357 73.2142 106.014 74.1541C105.72 74.9964 105.218 76.0706 104.128 76.1683C104.128 76.1683 104.03 76.1927 103.895 76.1927C103.76 76.1927 103.577 76.1805 103.418 76.1072C103.087 75.9607 102.805 75.6312 102.805 75.6312C102.23 74.9598 102.389 74.0931 102.585 73.3363C102.83 72.3964 103.699 70.1381 104.385 68.4048C104.532 68.0508 104.654 67.7212 104.777 67.416H103.393H96.0702H94.6987C94.564 67.7334 94.4293 68.063 94.2946 68.4048C93.3639 70.6508 92.372 73.2142 92.0291 74.1541C91.7352 74.9964 91.2331 76.0706 90.1433 76.1683C90.1433 76.1683 89.7514 76.2537 89.4208 76.1072C89.0901 75.9607 88.8207 75.6312 88.8207 75.6312C88.2452 74.9598 88.4044 74.0931 88.6003 73.3363C88.8452 72.3964 89.7147 70.1381 90.4004 68.4048C90.5474 68.0508 90.6698 67.7212 90.7923 67.416H89.4085H84.9756V68.4048H89.0167C88.3309 70.1259 87.5962 72.1034 87.3513 73.0189C87.1676 73.7391 86.7757 75.2161 87.8656 76.4856C87.8656 76.4856 88.5268 77.1204 88.9187 77.2791C89.5555 77.5476 90.2657 77.4378 90.2657 77.4378C92.3108 77.2669 93.021 75.2405 93.2537 74.5814C93.5598 73.7025 94.7232 70.7607 95.6783 68.4048H103.014C102.34 70.1259 101.593 72.1034 101.348 73.0189C101.164 73.7391 100.773 75.2161 101.862 76.4856C101.862 76.4856 102.524 77.1204 102.916 77.2791C103.234 77.4133 103.577 77.4622 103.834 77.4622C104.091 77.4744 104.263 77.4378 104.263 77.4378C106.308 77.2669 107.018 75.2405 107.251 74.5814C107.557 73.7025 108.72 70.7607 109.675 68.4048H116.986C116.312 70.1259 115.565 72.1034 115.32 73.0189C115.137 73.7391 114.745 75.2161 115.835 76.4856C115.835 76.4856 116.496 77.1204 116.888 77.2791C117.525 77.5476 118.235 77.4378 118.235 77.4378C120.28 77.2669 120.99 75.2405 121.223 74.5814C121.529 73.7025 122.692 70.7607 123.648 68.4048H141.036V67.416H124.039Z" fill="#5B6670"/>
<path d="M106.895 84.9937C108.794 84.9937 110.165 86.2387 110.165 88.1918C110.165 90.1449 108.781 91.39 106.895 91.39C104.997 91.39 103.614 90.1449 103.614 88.1918C103.614 86.2387 105.01 84.9937 106.895 84.9937ZM106.895 90.1449C108.034 90.1449 108.781 89.327 108.781 88.1918C108.781 87.0566 108.034 86.2387 106.895 86.2387C105.757 86.2387 105.01 87.0566 105.01 88.1918C105.01 89.327 105.757 90.1449 106.895 90.1449Z" fill="white"/>
<path d="M111.169 85.1523H113.422C114.684 85.1523 115.725 85.5552 115.725 86.9956C115.725 88.4238 114.757 88.8632 113.484 88.8632H112.504V91.2313H111.169V85.1523ZM112.516 87.728H113.41C113.888 87.728 114.353 87.5693 114.353 86.9956C114.353 86.373 113.716 86.2876 113.202 86.2876H112.516V87.728Z" fill="white"/>
<path d="M117.843 86.3364H116.104V85.1523H120.905V86.3364H119.178V91.2313H117.843V86.3364Z" fill="white"/>
<path d="M121.664 85.1523H122.999V91.2313H121.664V85.1523Z" fill="white"/>
<path d="M94.2457 94.3564H98.3235V95.5893H95.5927V96.8222H98.1276V98.0673H95.5927V100.435H94.2579V94.3564H94.2457Z" fill="white"/>
<path d="M99.4256 94.3564H103.552V95.5893H100.76V96.7246H103.393V97.9574H100.76V99.1903H103.699V100.423H99.4133V94.3564H99.4256Z" fill="white"/>
<path d="M106.859 94.3564H107.961L110.606 100.435H109.1L108.573 99.1537H106.21L105.708 100.435H104.238L106.859 94.3564ZM107.373 96.1264L106.638 98.0185H108.12L107.373 96.1264Z" fill="white"/>
<path d="M112.479 95.5405H110.741V94.3564H115.541V95.5405H113.814V100.435H112.479V95.5405Z" fill="white"/>
<path d="M116.312 94.3564H117.647V96.6269H120.243V94.3564H121.578V100.435H120.243V97.811H117.647V100.435H116.312V94.3564Z" fill="white"/>
<path d="M122.962 94.3564H127.089V95.5893H124.297V96.7246H126.929V97.9574H124.297V99.1903H127.236V100.423H122.95V94.3564H122.962Z" fill="white"/>
<path d="M128.399 94.3564H130.75C131.999 94.3564 133.04 94.7837 133.04 96.1997C133.04 97.0541 132.587 97.7133 131.73 97.8598L133.273 100.423H131.669L130.395 97.9941H129.734V100.423H128.399V94.3564ZM129.746 96.871H130.53C131.02 96.871 131.656 96.8588 131.656 96.1875C131.656 95.5771 131.105 95.4795 130.615 95.4795H129.746V96.871Z" fill="white"/>
<path d="M204.326 40H188.627H161.662H152V49.5701V73.5564V94.4177C152 99.691 156.347 104 161.662 104H180.153H204.326H213.988V86.8129V57.1627V49.5701C214 44.309 209.641 40 204.326 40Z" fill="white" stroke="#1D1D1B" stroke-width="2"/>
<path d="M196.978 49.0331L198.999 50.9374C195.913 53.2811 188.272 57.4924 174.752 59.531C173.834 59.6774 172.891 59.7995 171.936 59.9094H171.924L172.193 62.131H172.218C173.136 62.0211 174.042 61.8991 174.924 61.7648C174.948 61.7648 174.961 61.7526 174.985 61.7526C175.046 61.7404 175.108 61.7404 175.157 61.7282H175.181H175.193V61.716C175.463 61.6793 175.72 61.6305 175.989 61.5817V61.5939C176.516 61.5084 177.042 61.423 177.557 61.3253C189.251 59.2136 197.125 55.3318 200.652 52.4877L203.065 54.7459L205.024 46.6406L196.978 49.0331Z" fill="#5B6670"/>
<path d="M159.91 62.8881V62.8759L159.946 62.8881L159.934 60.6787L159.897 60.6665V60.6543C159.885 60.6543 159.885 60.6543 159.873 60.6543C159.359 60.6543 158.857 60.6543 158.331 60.6543L158.319 62.8881C158.563 62.8881 158.808 62.8881 159.065 62.8881C159.347 62.8881 159.628 62.8881 159.91 62.8881Z" fill="#5B6670"/>
<path d="M160.768 62.8759C161.785 62.8637 162.789 62.8393 163.744 62.8027H163.768L163.683 60.5933V60.5688H163.646C162.678 60.6055 161.699 60.6299 160.731 60.6421H160.707L160.744 62.8759H160.768Z" fill="#5B6670"/>
<path d="M171.397 62.2163L171.152 60.019L171.128 59.9946C170.172 60.1045 169.205 60.2021 168.238 60.2754H168.213L168.397 62.5092H168.421C169.425 62.4238 170.417 62.3383 171.385 62.2285L171.397 62.2163Z" fill="#5B6670"/>
<path d="M164.589 62.7656C165.617 62.7167 166.622 62.6557 167.552 62.5825H167.577L167.405 60.373V60.3486H167.381C166.413 60.4219 165.434 60.4829 164.466 60.5317H164.454L164.564 62.7656H164.589Z" fill="#5B6670"/>
<path d="M184.61 63.8161C184.488 63.7551 184.39 63.6208 184.268 63.5354C184.133 63.4377 183.998 63.3279 183.851 63.279C182.798 62.9372 181.28 63.4011 180.655 64.3044C180.447 64.6096 180.3 65.0002 180.251 65.3664C180.128 66.3918 179.59 67.112 178.757 67.6735C177.961 68.2228 177.177 68.7965 176.418 69.3824C175.475 70.1148 174.838 71.1036 174.189 72.0801C173.834 72.605 173.54 73.1787 173.234 73.7402C173.185 73.8379 173.21 73.9599 173.197 74.082C173.308 74.082 173.442 74.1064 173.54 74.0698C173.846 73.9477 174.128 73.8013 174.52 73.6181C174.03 74.5459 173.565 75.4003 173.087 76.3036C173.246 76.328 173.332 76.328 173.442 76.3525C172.94 77.1337 172.45 77.9027 171.961 78.6595C171.997 78.6962 172.022 78.745 172.059 78.7816C172.757 78.4154 173.455 78.0492 174.202 77.6464C173.014 80.4295 172.328 83.3836 170.565 85.8859C170.589 85.9104 170.614 85.9348 170.638 85.9592C170.773 85.8859 170.932 85.8371 171.054 85.7395C171.826 85.1291 172.377 84.3357 172.855 83.4934C174.03 81.4061 175.206 79.3187 176.345 77.2191C176.761 76.4623 177.373 76.1083 178.181 75.9863C178.488 75.9374 178.72 75.9985 178.892 76.2792C178.99 76.4257 179.137 76.5478 179.247 76.682C179.32 76.7797 179.43 76.914 179.406 76.9872C179.369 77.0971 179.235 77.2191 179.124 77.2558C178.843 77.329 178.549 77.3656 178.267 77.4144C178.206 77.4267 178.132 77.4633 178.059 77.4999C178.341 77.6952 179.161 77.6952 179.553 77.4877C179.773 77.3656 179.933 77.3412 180.153 77.5121C180.275 77.5976 180.471 77.6342 180.631 77.6342C181.047 77.6464 181.451 77.6098 181.867 77.6098C182.112 77.622 182.369 77.683 182.688 77.7196C182.798 77.5731 182.7 77.4511 182.467 77.4022C182.051 77.329 181.635 77.268 181.206 77.2069C180.986 77.1703 180.777 77.1581 180.557 77.1337C180.104 77.0849 179.92 76.8285 180.006 76.3647C180.031 76.2548 180.031 76.1449 180.043 76.0473C180.055 75.7299 180.19 75.5224 180.471 75.3515C181.439 74.7168 182.308 73.9844 183.018 73.0566C184.035 71.7261 184.463 70.2613 184.023 68.6134C183.827 67.8688 183.9 67.1364 183.998 66.404C184.598 66.2941 184.745 66.1964 185.1 65.7326C185.149 66.0622 185.186 66.3795 185.235 66.6969C185.994 65.8302 185.676 64.341 184.61 63.8161Z" fill="#5B6670"/>
<path d="M167.037 68.0143C166.951 67.9655 166.89 67.88 166.804 67.819C166.706 67.758 166.621 67.6725 166.51 67.6359C165.776 67.3918 164.723 67.7213 164.282 68.3561C164.135 68.5636 164.037 68.8444 164 69.1007C163.914 69.8087 163.535 70.3092 162.959 70.712C162.408 71.0904 161.857 71.4932 161.331 71.9083C160.669 72.4209 160.228 73.1045 159.775 73.7881C159.53 74.1543 159.322 74.5571 159.114 74.9355C159.077 74.9966 159.09 75.0942 159.09 75.1675C159.175 75.1675 159.261 75.1919 159.334 75.1553C159.543 75.0698 159.751 74.9722 160.02 74.8379C159.677 75.4848 159.359 76.083 159.028 76.7055C159.139 76.7177 159.2 76.7299 159.273 76.7299C158.906 77.2914 158.82 78.0483 158.894 78.1337C158.967 78.2191 159.261 77.9262 159.788 77.6454C159.285 78.622 160.522 77.7675 160.951 77.4013C161.38 77.0351 162.139 76.559 162.567 76.4858C162.727 76.4614 162.947 76.498 163.069 76.6933C163.131 76.8032 163.241 76.8764 163.314 76.9741C163.363 77.0351 163.449 77.1327 163.425 77.1816C163.4 77.2548 163.302 77.3403 163.229 77.3647C163.033 77.4135 162.837 77.4379 162.629 77.4745C162.58 77.4867 162.543 77.5112 162.482 77.5356C162.678 77.6698 163.253 77.6698 163.523 77.5234C163.669 77.4379 163.792 77.4257 163.939 77.5356C164.025 77.5966 164.159 77.621 164.27 77.621C164.551 77.621 164.845 77.5966 165.127 77.6088C165.298 77.6088 165.47 77.6576 165.69 77.6821C165.763 77.5844 165.69 77.4867 165.531 77.4623C165.237 77.4135 164.943 77.3647 164.661 77.3281C164.514 77.3036 164.355 77.2914 164.208 77.2792C163.89 77.2426 163.767 77.0717 163.829 76.7421C163.841 76.6689 163.853 76.5957 163.853 76.5224C163.865 76.3027 163.963 76.1562 164.147 76.0341C164.821 75.5947 165.433 75.082 165.923 74.4351C166.633 73.5073 166.927 72.4942 166.621 71.3467C166.486 70.8341 166.535 70.3214 166.596 69.8087C167.013 69.7232 167.123 69.6622 167.368 69.3448C167.404 69.5768 167.429 69.7965 167.466 70.0162C167.992 69.4181 167.772 68.3805 167.037 68.0143Z" fill="#5B6670"/>
<path d="M191.37 75.7168C191.579 75.7412 191.701 75.7535 191.848 75.7779C191.187 76.8154 190.538 77.8286 189.901 78.8296C189.95 78.8784 189.987 78.9394 190.036 78.9882C190.954 78.5 191.872 78.0117 192.877 77.4868C191.297 81.1732 190.403 85.0794 188.076 88.3874C188.113 88.4241 188.138 88.4607 188.174 88.4851C188.358 88.3874 188.566 88.3142 188.725 88.1921C189.742 87.3865 190.476 86.3367 191.101 85.2259C192.644 82.4672 194.211 79.7084 195.718 76.9253C196.256 75.9243 197.077 75.4605 198.155 75.2896C198.559 75.2286 198.865 75.314 199.097 75.6802C199.22 75.8755 199.416 76.0342 199.563 76.2173C199.661 76.3394 199.808 76.5225 199.771 76.6201C199.722 76.7666 199.551 76.9253 199.391 76.9741C199.024 77.0718 198.632 77.1084 198.265 77.1816C198.179 77.1938 198.093 77.2549 197.995 77.2915C198.375 77.5478 199.465 77.5478 199.967 77.2671C200.249 77.1084 200.469 77.084 200.751 77.2915C200.91 77.4136 201.167 77.4502 201.387 77.4502C201.938 77.4624 202.477 77.4136 203.028 77.4258C203.359 77.438 203.69 77.5112 204.106 77.5723C204.253 77.3769 204.118 77.2061 203.812 77.1572C203.261 77.0596 202.71 76.9741 202.147 76.9009C201.865 76.8643 201.571 76.8276 201.289 76.8032C200.689 76.7422 200.457 76.4004 200.567 75.7901C200.591 75.6436 200.604 75.5093 200.616 75.3628C200.628 74.9478 200.812 74.667 201.179 74.4351C202.453 73.5929 203.616 72.6285 204.547 71.4078C205.882 69.6501 206.457 67.7214 205.882 65.5364C205.624 64.5599 205.71 63.5833 205.845 62.6068C206.641 62.4603 206.837 62.326 207.302 61.7279C207.363 62.1551 207.425 62.5824 207.474 63.0096C208.478 61.8622 208.061 59.8969 206.653 59.2133C206.482 59.1279 206.359 58.957 206.212 58.8471C206.041 58.725 205.857 58.5663 205.661 58.5053C204.265 58.0537 202.269 58.664 201.436 59.8725C201.155 60.2753 200.971 60.788 200.91 61.2762C200.738 62.6312 200.028 63.5833 198.926 64.3279C197.873 65.0481 196.844 65.8172 195.828 66.5984C194.579 67.5627 193.734 68.8688 192.889 70.1628C192.424 70.8585 192.032 71.6154 191.628 72.3478C191.566 72.4698 191.591 72.6407 191.579 72.7872C191.726 72.7872 191.897 72.8238 192.032 72.775C192.424 72.6163 192.815 72.421 193.33 72.1769C192.607 73.3975 191.995 74.5328 191.37 75.7168Z" fill="#1D1D1B"/>
<path d="M191.958 72.7746C191.824 72.8234 191.652 72.7868 191.505 72.7868C191.518 72.6403 191.493 72.4694 191.554 72.3473C191.958 71.6149 192.35 70.8581 192.816 70.1623C193.673 68.8684 194.506 67.5623 195.755 66.5979C196.771 65.8167 197.8 65.0477 198.853 64.3275C199.955 63.5707 200.665 62.6308 200.837 61.2758C200.898 60.7875 201.081 60.2749 201.363 59.872C202.196 58.6758 204.192 58.0532 205.588 58.5049C205.784 58.5659 205.967 58.7246 206.139 58.8467C206.298 58.9565 206.421 59.1274 206.58 59.2129C207.988 59.9087 208.404 61.8739 207.4 63.0092C207.339 62.5941 207.278 62.1547 207.229 61.7275C206.751 62.3378 206.568 62.4599 205.772 62.6063C205.649 63.5829 205.551 64.5594 205.808 65.536C206.384 67.7088 205.821 69.6496 204.474 71.4074C203.543 72.6281 202.38 73.6046 201.106 74.4347C200.751 74.6666 200.555 74.9474 200.543 75.3624C200.543 75.5089 200.53 75.6432 200.494 75.7896C200.383 76.4 200.628 76.7296 201.216 76.8028C201.498 76.8394 201.792 76.8638 202.073 76.9004C202.624 76.9859 203.188 77.0591 203.739 77.1568C204.045 77.2178 204.18 77.3765 204.033 77.5718C203.616 77.5108 203.286 77.4253 202.955 77.4253C202.404 77.4131 201.865 77.462 201.314 77.4498C201.094 77.4498 200.849 77.4131 200.677 77.2911C200.396 77.0835 200.175 77.108 199.894 77.2666C199.392 77.5474 198.302 77.5474 197.922 77.2911C198.02 77.2544 198.106 77.1934 198.191 77.1812C198.571 77.108 198.951 77.0713 199.318 76.9737C199.477 76.9249 199.649 76.7662 199.698 76.6197C199.734 76.522 199.575 76.3389 199.49 76.2169C199.343 76.0338 199.147 75.8751 199.024 75.6798C198.792 75.3136 198.485 75.2281 198.081 75.2892C197.016 75.4601 196.195 75.9239 195.644 76.9249C194.138 79.708 192.571 82.4667 191.028 85.2255C190.403 86.3485 189.668 87.386 188.652 88.1917C188.493 88.3138 188.285 88.387 188.101 88.4847C188.064 88.448 188.04 88.4114 188.003 88.387C190.33 85.079 191.236 81.1606 192.803 77.4864C191.799 78.0113 190.881 78.4995 189.962 78.9878C189.913 78.939 189.877 78.8779 189.828 78.8291C190.477 77.816 191.113 76.8028 191.775 75.7774C191.628 75.7652 191.518 75.7408 191.297 75.7164C191.934 74.5323 192.534 73.3849 193.183 72.1642C192.742 72.4084 192.363 72.6037 191.958 72.7746Z" fill="#1D1D1B"/>
<path d="M204.326 81.2827H186.937H159.96H152V90.8528V81.356V94.4172C152 99.6783 156.347 103.987 161.662 103.987H178.463H202.538H214V94.6125V98.4454V90.8528C214 85.5917 209.653 81.2827 204.326 81.2827Z" fill="#1D1D1B"/>
<path d="M175.647 85.0303C177.545 85.0303 178.917 86.2754 178.917 88.2284C178.917 90.1815 177.533 91.4266 175.647 91.4266C173.749 91.4266 172.365 90.1815 172.365 88.2284C172.365 86.2754 173.749 85.0303 175.647 85.0303ZM175.647 90.1815C176.786 90.1815 177.533 89.3637 177.533 88.2284C177.533 87.0932 176.786 86.2754 175.647 86.2754C174.508 86.2754 173.761 87.0932 173.761 88.2284C173.761 89.3637 174.508 90.1815 175.647 90.1815Z" fill="white"/>
<path d="M179.921 85.189H182.174C183.436 85.189 184.476 85.5918 184.476 87.0322C184.476 88.4604 183.509 88.8998 182.235 88.8998H181.256V91.2679H179.921V85.189ZM181.256 87.7646H182.15C182.627 87.7646 183.093 87.6059 183.093 87.0322C183.093 86.4096 182.456 86.3242 181.942 86.3242H181.256V87.7646Z" fill="white"/>
<path d="M186.583 86.373H184.844V85.189H189.644V86.373H187.917V91.2679H186.583V86.373Z" fill="white"/>
<path d="M190.403 85.189H191.737V91.2679H190.403V85.189Z" fill="white"/>
<path d="M168.41 100.033C167.626 100.448 166.757 100.619 165.863 100.619C163.965 100.619 162.593 99.3734 162.593 97.4203C162.593 95.4673 163.977 94.2222 165.863 94.2222C166.83 94.2222 167.675 94.4419 168.287 95.0034L167.344 96.0288C166.989 95.6504 166.548 95.4551 165.863 95.4551C164.724 95.4551 163.977 96.2729 163.977 97.4081C163.977 98.5434 164.724 99.3612 165.863 99.3612C166.45 99.3612 166.879 99.2025 167.124 99.056V98.0673H166.034V96.8344H168.41V100.033Z" fill="white"/>
<path d="M169.684 94.3926H172.035C173.284 94.3926 174.325 94.8198 174.325 96.2358C174.325 97.0903 173.872 97.7494 173.015 97.8959L174.557 100.459H172.953L171.68 98.0302H171.018V100.459H169.684V94.3926ZM171.018 96.9072H171.802C172.292 96.9072 172.929 96.895 172.929 96.2236C172.929 95.6133 172.378 95.5156 171.888 95.5156H171.018V96.9072Z" fill="white"/>
<path d="M178.267 94.2339C180.165 94.2339 181.537 95.479 181.537 97.4321C181.537 99.3851 180.153 100.63 178.267 100.63C176.369 100.63 174.986 99.3851 174.986 97.4321C174.986 95.479 176.382 94.2339 178.267 94.2339ZM178.267 99.3851C179.406 99.3851 180.153 98.5673 180.153 97.4321C180.153 96.2968 179.406 95.479 178.267 95.479C177.129 95.479 176.382 96.2968 176.382 97.4321C176.382 98.5673 177.129 99.3851 178.267 99.3851Z" fill="white"/>
<path d="M181.917 94.3926H183.374L184.341 98.2865H184.354L185.627 94.3926H186.876L188.138 98.3964H188.15L189.166 94.3926H190.526L188.75 100.472H187.562L186.227 96.2602H186.215L184.88 100.472H183.729L181.917 94.3926Z" fill="white"/>
<path d="M192.387 95.5766H190.66V94.3926H195.46V95.5766H193.721V100.472H192.387V95.5766Z" fill="white"/>
<path d="M196.22 94.3926H197.555V96.663H200.151V94.3926H201.486V100.472H200.151V97.8471H197.555V100.472H196.22V94.3926Z" fill="white"/>
</svg>
