<svg xmlns="http://www.w3.org/2000/svg" fill="none" viewBox="0 0 226 116">
  <path fill="#5B6670" d="M47.4085 19h2.808V9.226h.036L53.4745 19h2.142l3.348-9.774h.036V19h2.808V6.256h-4.23l-2.952 8.316h-.036l-2.934-8.316h-4.248V19zm15.324 0h3.096l1.062-2.7h4.95l1.0981 2.7h3.168L70.5625 6.256h-2.322L62.7325 19zm8.154-5.076h-3.114l1.548-3.96 1.566 3.96zM76.9923 19h2.808V6.256h-2.808V19zm5.0022 0h2.808V9.928h.036L90.4005 19h3.672V6.256h-2.808v8.856h-.036l-5.418-8.856h-3.816V19zm16.7838 0h2.8077V8.74h3.636V6.256H95.1423V8.74h3.636V19zm7.6177 0h8.982v-2.592h-6.174v-2.592h5.526v-2.592h-5.526V8.848h5.85V6.256h-8.658V19zm10.87 0h2.808V9.928h.036L125.672 19h3.672V6.256h-2.808v8.856h-.036l-5.418-8.856h-3.816V19zm13.004 0h3.096l1.062-2.7h4.95l1.098 2.7h3.168L138.1 6.256h-2.322L130.27 19zm8.154-5.076h-3.114l1.548-3.96 1.566 3.96zM144.566 19h2.808V9.928h.036L152.972 19h3.672V6.256h-2.808v8.856h-.036l-5.418-8.856h-3.816V19zm24.811-11.196c-1.08-1.386-2.88-1.872-4.302-1.872-3.978 0-6.876 2.61-6.876 6.696s2.898 6.696 6.876 6.696c1.746 0 3.546-.702 4.608-2.214l-2.34-1.746c-.576.864-1.494 1.368-2.628 1.368-2.034 0-3.6-1.728-3.6-4.104 0-2.376 1.566-4.104 3.69-4.104 1.044 0 1.854.378 2.412 1.044l2.16-1.764zM170.954 19h8.982v-2.592h-6.174v-2.592h5.526v-2.592h-5.526V8.848h5.85V6.256h-8.658V19z"/>
  <rect width="224" height="86" x="1" y="29" fill="#ECEDED" stroke="#5B6670" stroke-width="2" rx="7"/>
  <path fill="#fff" stroke="#1D1D1B" stroke-width="2" d="M64.3259 40H12V94.4177C12 99.691 16.3472 104 21.6619 104H73.9878V49.5701C74 44.309 69.6405 40 64.3259 40z"/>
  <path fill="#1D1D1B" d="M64.3259 81.2827H12v9.5701-9.4968 13.0612c0 5.2611 4.3472 9.5698 9.6619 9.5698H74v-9.3745 3.8329-7.5926c0-5.2611-4.3472-9.5701-9.6741-9.5701z"/>
  <path fill="#fff" d="M37.1771 85.0059c1.8981 0 3.2819 1.245 3.2819 3.1981s-1.3838 3.1982-3.2819 3.1982c-1.898 0-3.2696-1.2451-3.2696-3.1982 0-1.9531 1.3838-3.1981 3.2696-3.1981zm0 5.1512c1.1389 0 1.8859-.8178 1.8859-1.9531 0-1.1352-.747-1.9531-1.8859-1.9531-1.1388 0-1.8858.8179-1.8858 1.9531 0 1.1353.747 1.9531 1.8858 1.9531z"/>
  <path fill="#fff" d="M41.4509 85.1528h2.2532c1.2613 0 2.3022.4029 2.3022 1.8433 0 1.4281-.9674 1.8676-2.2409 1.8676h-.9797v2.3681h-1.3348v-6.079zm1.3471 2.5757h.8939c.4776 0 .9429-.1587.9429-.7324 0-.6226-.6368-.708-1.1511-.708h-.6857v1.4404z"/>
  <path fill="#fff" d="M48.1249 86.3369H46.386v-1.1841h4.8003v1.1841h-1.7266v4.8949h-1.3348v-4.8949z"/>
  <path fill="#fff" d="M51.9332 85.1528h1.3348v6.079h-1.3348v-6.079z"/>
  <path fill="#fff" d="M28.6664 94.3569h2.0083c1.9593 0 3.588.8301 3.588 3.0517 0 1.9653-1.6042 3.0274-3.4165 3.0274h-2.192v-6.0791h.0122zm1.3348 4.8461h.698c1.2491 0 2.1797-.476 2.1797-1.8554 0-1.1963-.9551-1.7578-2.0817-1.7578h-.7838v3.6132h-.0122z"/>
  <path fill="#fff" d="M35.2423 94.3569h1.3348v6.0791h-1.3348v-6.0791z"/>
  <path fill="#fff" d="M43.3857 100.009c-.7837.415-1.6532.586-2.5471.586-1.8981 0-3.2696-1.2455-3.2696-3.1986 0-1.9531 1.3837-3.1982 3.2696-3.1982.9674 0 1.8123.2198 2.4246.7813l-.9429 1.0253c-.3551-.3784-.796-.5737-1.4817-.5737-1.1389 0-1.8859.8179-1.8859 1.9531 0 1.1352.747 1.9531 1.8859 1.9531.5878 0 1.0164-.1587 1.2613-.3052v-.9643H41.01v-1.2329h2.3757v3.1741z"/>
  <path fill="#fff" d="M44.696 94.3569h4.1268v1.2329h-2.7921v1.1352h2.6329v1.2329h-2.6329v1.2329h2.939v1.2332h-4.286v-6.0671h.0123z"/>
  <path fill="#fff" d="M53.1334 95.8462c-.2204-.2686-.649-.4029-.9674-.4029-.3796 0-.9062.1709-.9062.6226 0 1.1108 2.792.3906 2.792 2.5268 0 1.3549-1.0899 2.0023-2.3389 2.0023-.7837 0-1.4695-.232-2.0451-.7694l.9552-1.0498c.2694.354.7225.5737 1.1634.5737.4408 0 .9306-.2075.9306-.6348 0-1.1108-2.8532-.5126-2.8532-2.539 0-1.2939 1.1266-1.9775 2.3144-1.9775.6858 0 1.347.1831 1.8614.6348l-.9062 1.0132z"/>
  <path fill="#fff" d="M56.3173 95.541h-1.7389v-1.1841h4.8003v1.1841H57.652v4.895h-1.3347v-4.895z"/>
  <path fill="#1D1D1B" d="M38.9774 61.0684c-.3674 0-.7593.0976-1.1266.3662-.2939.2197-.6001.5493-.4286.9033.1959.3906.8449.6835 1.6531.7568-.1102-.4761.1837-1.0864.9552-1.4526.1102-.0489.2082-.1099.3184-.1587-.1592-.0977-.3307-.1831-.5143-.2564-.2327-.0854-.5266-.1586-.8572-.1586z"/>
  <path fill="#1D1D1B" d="M54.8354 45.0288c-.3184-.1586-.5511-.476-.8327-.6835-.3306-.2442-.6613-.5249-1.0409-.647-2.6206-.8545-6.3922.3052-7.9475 2.5634-.5265.7568-.8816 1.7334-.9919 2.6367-.3183 2.539-1.6531 4.3334-3.7226 5.7372-1.9838 1.3549-3.9187 2.7953-5.8168 4.2601-2.3511 1.8066-3.9308 4.2846-5.535 6.7015-.8695 1.3184-1.6042 2.7221-2.3634 4.1137-.1225.2319-.0735.5493-.098.8301.2817-.0122.6123.061.8572-.0367.747-.3051 1.4695-.6713 2.4246-1.123-1.2245 2.2949-2.3634 4.4433-3.5512 6.6771.4041.0488.6245.0732.8939.1099-1.249 1.953-2.4614 3.8451-3.6737 5.7494.0857.0976.1592.1953.2449.3051 1.7267-.9155 3.4656-1.831 5.3392-2.8197-2.9635 6.9212-4.6534 14.2697-9.0374 20.4951.0613.061.1225.1338.1837.1958.3429-.1836.7225-.3179 1.0287-.562 1.9103-1.5259 3.2941-3.4789 4.4696-5.5785 2.9145-5.2001 5.8535-10.3757 8.6822-15.6124 1.0164-1.8921 2.5594-2.7465 4.5799-3.0761.7715-.1221 1.3471.0366 1.7757.7324.2326.3784.6.6591.8694 1.0131.1837.232.4653.5738.4041.7569-.098.2807-.4286.5859-.7102.6591-.6858.1953-1.4205.2564-2.1308.3906-.1714.0367-.3184.1343-.5021.2076.7103.476 2.7553.476 3.6982-.0489.5389-.2929.9552-.354 1.4818.0489.3061.2319.7837.2929 1.1878.3051 1.0286.0244 2.0573-.0732 3.0859-.0488.6246.0122 1.2491.1709 2.0206.2807.2694-.3662.0245-.6835-.5511-.7934-1.0409-.1953-2.0818-.3296-3.1227-.4883-.5388-.0732-1.0776-.1342-1.6164-.1831-1.1266-.122-1.5674-.7568-1.3715-1.9042.049-.2686.0735-.5371.0857-.8057.0245-.7812.3796-1.2939 1.0532-1.7455 2.4001-1.5869 4.5798-3.4057 6.331-5.7006 2.5226-3.308 3.588-6.9456 2.4981-11.0349-.4898-1.8432-.3184-3.6742-.0735-5.5052 1.494-.2808 1.8614-.5249 2.7431-1.6601.1102.8056.2204 1.6112.3306 2.4047 1.8613-2.124 1.0654-5.8104-1.5797-7.1166zm-3.2696 9.4725c.5511 1.2939 1.1021 2.3071-.2572 3.1493-1.0164.6226-1.8123-.2075-2.4981-.5859-.3551.6958-.4776 1.123-.6123 2.0629-.1224.8789-.7347 1.2329-.8327 1.8677.7103.6103 1.1511 1.5014.8572 2.246-.2571.6836-.8817 1.0864-1.4082.9644-.5144.415-1.4205.5004-1.9104-.1587-.6612-.8667-.4898-1.6968-.1592-2.4658h-.0244c-.3429-.1221-.6981.0977-1.3593.5371-.3674.2441-.7837.5127-1.2858.769.3918 1.477.9062 2.1484 2.4001 1.9653.9185-.1098 1.641.0977 1.9471.5859.1714.2686.1714.5738.0245.8179-.2082.3296-.649.4883-1.2001.4272-.9429-.1098-1.7389-.6103-2.4369-1.0498-.4408-.2685-.8449-.5371-1.2245-.6591-.5021-.1587-.8328-.0611-.9675.0854-.0857.0855-.0979.1831-.0612.293.0857.2441.4653.5371 1.2858.6225 2.3267.2686 3.6615.7813 3.7472 1.4282.0245.1343.0122.4639-.5021.6714-.5143.2075-1.1756-.1221-1.947-.5005-.5511-.2685-1.1634-.5859-1.7634-.708-.5511-.1098-.8572 0-.9307.0855-.0122.0122-.0245.0244 0 .061.0735.1465.4898.4395 1.5307.4517 1.0899.0122 2.0573.5126 2.2655 1.1596.0979.3296-.0245.6347-.3307.8545-.4041.2685-1.0041.2197-1.6409.122h-.049c-1.3225-.122-2.1307.0855-2.143.9766-.0122.476-.0612 1.0986-.502 1.6479-.4409.5493-.2205 1.1108-.1837 1.3549.0367.2442-1.1266.3052-1.3593-.2197-.1347-.3052.2816-.0854.2572-.708-.0245-.5127-.1715-1.062.2326-1.8798.4041-.8179.845-1.416 1.7022-1.6601.3796-.1099.8082-.1099 1.2123-.0611.2694.0122.5266.0489.7837.0855.6001.0854 1.1634.1587 1.445-.0366.1837-.1343.1715-.2564.147-.3418-.1102-.3418-.796-.8301-1.8246-.8423-1.0042-.0122-1.7267-.2685-1.9471-.708-.098-.1831-.0735-.3906.049-.5493.2204-.293.747-.3906 1.396-.2563.6613.1342 1.3103.4516 1.8858.7446.6368.3174 1.2368.6225 1.5675.4882.1347-.061.2326-.1342.2204-.183-.0245-.1832-.6735-.7325-3.3431-1.0376-.8817-.0977-1.494-.4395-1.6654-.9277-.098-.2686-.0367-.5615.1714-.7691.3062-.3173.845-.3906 1.445-.1953.4409.1343.8695.4151 1.3348.708.6858.4395 1.4083.8789 2.241.9766.4286.0488.6735-.0733.7592-.2076.0612-.0976.049-.2075-.0245-.3295-.1592-.2564-.6367-.4761-1.5062-.3784-1.9103.2441-2.5226-.8545-2.89-2.2217-.2204.0977-.4653.1709-.7102.2564-.4776.2807-.8817.476-1.0287.4516-.2081-.0366-.3673-.1098-.502-.2075-1.0899-.0122-2.0696-.3784-2.388-1.0132-.1102-.2319-.2939-.8422.5633-1.477.6858-.5005 1.5185-.5981 2.4247-.2685.2939.1098.5755.2685.8327.4394.9184-.476 1.6532-.8667 2.3022-.6836.8327.232 1.0531-.6225.9184-.9033-.0857-.1709-.1469-.3784-.1469-.5981-.3184-.3052-.7348-.2075-1.3838-.5371-.649-.3296-.5755-1.0009-.1469-1.5747-.2205-.4638-.1837-.8056-.049-1.0619l-.147-.2442c-.2326-.2441-.5143-.4638-.1592-.9521.4164-.5615 1.3471-.415 2.5471.0854 1.2246.5127 1.6532 2.2827 1.6655 2.6489.0122.354-.6736.708-.7715 1.1352-.0857.3784-.4286.1953-.8205.4029-.0979.122-.1959.2197-.2939.2807-.1347.415.3184 1.0498.2572 1.2817-.0735.2686-.5511.2442-1.0287.8423-.0367.0488-.1224.1221-.1836.1953.5388-.3418.9919-.5737 1.4694-.4028.0368.0122.049.0366.0735.061.3062-.4394.8205-.7324 1.3715-.708.2694-.3906.196-.8789.3429-1.2695.3184-.8545.9552-1.1963 1.4083-2.3437-.6613-.0244-1.4328.0977-1.8859-1.0376-.5755-1.4526 1.6042-1.9652 2.3634-2.6732 1.543-1.4526 1.8247-3.2348 4.0534-3.9794l.049.769c-2.939 1.7822-1.6655 3.2104-1.1144 4.5165z"/>
  <path fill="#fff" stroke="#1D1D1B" stroke-width="2" d="M134.326 40H82V94.4177C82 99.691 86.3472 104 91.6619 104h52.3261V49.5701C144 44.309 139.641 40 134.326 40z"/>
  <path fill="#1D1D1B" d="M134.326 81.2827H82v9.5701-9.4968 13.0612c0 5.2611 4.3472 9.5698 9.6619 9.5698H144v-9.3745 3.8329-7.5926c0-5.2611-4.347-9.5701-9.674-9.5701z"/>
  <path fill="#1D1D1B" d="M103.528 55.8562c-.539.122-1.127.1709-.074-.4273 1.323-.7446 3.135-1.3671 4.311-1.7211.331-.7446.588-1.477.808-2.185-.906.2075-2.253.5126-2.767.6713-.466.1465-.711.0367.257-.5737.796-.5005 2.118-1.0742 2.878-1.3794 1.004-4.016.612-7.0555.612-7.0555s-4.592 1.3794-9.013 5.2856c.11.7934.269 2.185.147 2.6733-.208.8544-.245.2075-.404-.4639-.061-.2441-.27-.9521-.4655-1.5625-2.0451 1.9531-3.9921 4.4677-5.3637 7.6659-2.143 5.0169-2.045 9.9851-2.045 9.9851s-2.2287 5.4442-2.6083 6.9212c-.3796 1.477.1469 1.1352.551.0122.2449-.708 1.8124-5.1878 4.3717-10.2903 2.2165-4.4188 4.4207-8.0442 6.8458-10.8884 0 0 1.934-2.2338 2.241-2.478.306-.2441 2.118-2.0019.391.3174-1.726 2.3193-6.3673 8.3006-10.0656 16.3693 0 0 5.6576-2.478 9.9926-7.3485 1.212-1.3549 2.155-2.7587 2.902-4.1503-1.347.2197-2.939.4883-3.502.6226z"/>
  <path fill="#1D1D1B" d="M117.574 55.8562c-.539.122-1.127.1709-.074-.4273 1.323-.7446 3.135-1.3671 4.311-1.7211.33-.7446.588-1.477.808-2.185-.906.2075-2.253.5126-2.768.6713-.465.1465-.71.0367.258-.5737.796-.5005 2.118-1.0742 2.877-1.3794 1.004-4.016.613-7.0555.613-7.0555s-4.593 1.3794-9.013 5.2856c.11.7934.269 2.185.147 2.6733-.208.8544-.245.2075-.404-.4639-.062-.2441-.27-.9521-.466-1.5625-2.045 1.9531-3.992 4.4677-5.363 7.6659-2.143 5.0169-2.045 9.9851-2.045 9.9851s-2.229 5.4442-2.609 6.9212c-.379 1.477.147 1.1352.551.0122.245-.708 1.813-5.1878 4.372-10.2903 2.217-4.4188 4.421-8.0442 6.845-10.8884 0 0 1.935-2.2338 2.241-2.478.307-.2441 2.119-2.0019.392.3174-1.726 2.3193-6.368 8.3006-10.066 16.3693 0 0 5.658-2.478 9.993-7.3485 1.212-1.3549 2.155-2.7587 2.902-4.1503-1.347.2197-2.939.4883-3.502.6226z"/>
  <path fill="#1D1D1B" d="M131.632 55.8562c-.539.122-1.127.1709-.074-.4273 1.323-.7446 3.135-1.3671 4.311-1.7211.33-.7446.588-1.477.808-2.185-.906.2075-2.253.5126-2.767.6713-.466.1465-.711.0367.257-.5737.796-.5005 2.118-1.0742 2.877-1.3794 1.005-4.016.613-7.0555.613-7.0555s-4.592 1.3794-9.013 5.2856c.11.7934.269 2.185.147 2.6733-.208.8544-.245.2075-.404-.4639-.062-.2441-.27-.9521-.466-1.5625-2.045 1.9531-3.992 4.4677-5.363 7.6659-2.143 5.0169-2.045 9.9851-2.045 9.9851s-2.229 5.4442-2.609 6.9212c-.379 1.477.147 1.1352.551.0122.245-.708 1.813-5.1878 4.372-10.2903 2.217-4.4188 4.421-8.0442 6.846-10.8884 0 0 1.934-2.2338 2.24-2.478.307-.2441 2.119-2.0019.392.3174-1.726 2.3193-6.367 8.3006-10.066 16.3693 0 0 5.658-2.478 9.993-7.3485 1.212-1.3549 2.155-2.7587 2.902-4.1503-1.359.2197-2.939.4883-3.502.6226z"/>
  <path fill="#5B6670" d="M124.039 67.416h-1.371c-.135.3174-.27.647-.404.9888-.931 2.246-1.923 4.8094-2.266 5.7493-.294.8423-.796 1.9165-1.886 2.0142 0 0-.391.0854-.722-.0611-.331-.1465-.612-.476-.612-.476-.576-.6714-.417-1.5381-.221-2.2949.245-.9399 1.115-3.1982 1.8-4.9315.147-.354.27-.6836.392-.9888H108.683c-.134.3174-.269.647-.404.9888-.931 2.246-1.922 4.8094-2.265 5.7493-.294.8423-.796 1.9165-1.886 2.0142 0 0-.098.0244-.233.0244s-.318-.0122-.477-.0855c-.331-.1465-.613-.476-.613-.476-.575-.6714-.416-1.5381-.22-2.2949.245-.9399 1.114-3.1982 1.8-4.9315.147-.354.269-.6836.392-.9888H94.6987c-.1347.3174-.2694.647-.4041.9888-.9307 2.246-1.9226 4.8094-2.2655 5.7493-.2939.8423-.796 1.9165-1.8858 2.0142 0 0-.3919.0854-.7225-.0611-.3307-.1465-.6001-.476-.6001-.476-.5755-.6714-.4163-1.5381-.2204-2.2949.2449-.9399 1.1144-3.1982 1.8001-4.9315.147-.354.2694-.6836.3919-.9888h-5.8167v.9888h4.0411c-.6858 1.7211-1.4205 3.6986-1.6654 4.6141-.1837.7202-.5756 2.1972.5143 3.4667 0 0 .6612.6348 1.0531.7935.6368.2685 1.347.1587 1.347.1587 2.0451-.1709 2.7553-2.1973 2.988-2.8564.3061-.8789 1.4695-3.8207 2.4246-6.1766h7.3357c-.674 1.7211-1.421 3.6986-1.666 4.6141-.184.7202-.575 2.1972.514 3.4667 0 0 .662.6348 1.054.7935.318.1342.661.1831.918.1831.257.0122.429-.0244.429-.0244 2.045-.1709 2.755-2.1973 2.988-2.8564.306-.8789 1.469-3.8207 2.424-6.1766h7.311c-.674 1.7211-1.421 3.6986-1.666 4.6141-.183.7202-.575 2.1972.515 3.4667 0 0 .661.6348 1.053.7935.637.2685 1.347.1587 1.347.1587 2.045-.1709 2.755-2.1973 2.988-2.8564.306-.8789 1.469-3.8207 2.425-6.1766h17.388v-.9888h-16.997z"/>
  <path fill="#fff" d="M106.895 84.9937c1.899 0 3.27 1.245 3.27 3.1981s-1.384 3.1982-3.27 3.1982c-1.898 0-3.281-1.2451-3.281-3.1982 0-1.9531 1.396-3.1981 3.281-3.1981zm0 5.1512c1.139 0 1.886-.8179 1.886-1.9531 0-1.1352-.747-1.9531-1.886-1.9531-1.138 0-1.885.8179-1.885 1.9531 0 1.1352.747 1.9531 1.885 1.9531z"/>
  <path fill="#fff" d="M111.169 85.1523h2.253c1.262 0 2.303.4029 2.303 1.8433 0 1.4282-.968 1.8676-2.241 1.8676h-.98v2.3681h-1.335v-6.079zm1.347 2.5757h.894c.478 0 .943-.1587.943-.7324 0-.6226-.637-.708-1.151-.708h-.686v1.4404z"/>
  <path fill="#fff" d="M117.843 86.3364h-1.739v-1.1841h4.801v1.1841h-1.727v4.8949h-1.335v-4.8949z"/>
  <path fill="#fff" d="M121.664 85.1523h1.335v6.079h-1.335v-6.079z"/>
  <path fill="#fff" d="M94.2457 94.3564h4.0778v1.2329h-2.7308v1.2329h2.5349v1.2451h-2.5349v2.3677h-1.3348v-6.0786h-.0122z"/>
  <path fill="#fff" d="M99.4256 94.3564h4.1264v1.2329h-2.792v1.1353h2.633v1.2328h-2.633v1.2329h2.939v1.2327h-4.2857v-6.0666h.0123z"/>
  <path fill="#fff" d="M106.859 94.3564h1.102l2.645 6.0786H109.1l-.527-1.2813h-2.363l-.502 1.2813h-1.47l2.621-6.0786zm.514 1.77l-.735 1.8921h1.482l-.747-1.8921z"/>
  <path fill="#fff" d="M112.479 95.5405h-1.738v-1.1841h4.8v1.1841h-1.727v4.8945h-1.335v-4.8945z"/>
  <path fill="#fff" d="M116.312 94.3564h1.335v2.2705h2.596v-2.2705h1.335v6.0786h-1.335v-2.624h-2.596v2.624h-1.335v-6.0786z"/>
  <path fill="#fff" d="M122.962 94.3564h4.127v1.2329h-2.792v1.1353h2.632v1.2328h-2.632v1.2329h2.939v1.2327h-4.286v-6.0666h.012z"/>
  <path fill="#fff" d="M128.399 94.3564h2.351c1.249 0 2.29.4273 2.29 1.8433 0 .8544-.453 1.5136-1.31 1.6601l1.543 2.5632h-1.604l-1.274-2.4289h-.661v2.4289h-1.335v-6.0666zm1.347 2.5146h.784c.49 0 1.126-.0122 1.126-.6835 0-.6104-.551-.708-1.041-.708h-.869v1.3915z"/>
  <path fill="#fff" stroke="#1D1D1B" stroke-width="2" d="M204.202 40H152V94.2215c0 5.2543 4.337 9.5475 9.639 9.5475h52.202V49.5356c.012-5.2422-4.337-9.5356-9.639-9.5356z"/>
  <path fill="#1D1D1B" d="M204.202 81.1343H152v9.5356-9.4626 13.0141c0 5.2421 4.337 9.5356 9.639 9.5356h52.214v-9.341 3.8191-7.5652c0-5.2422-4.337-9.5356-9.651-9.5356z"/>
  <path fill="#5B6670" d="M173.611 44.3297c.172-.0486.257-.2311.208-.4013-.049-.1703-.232-.2555-.403-.2068-9.028 2.8826-13.634 10.5694-12.327 20.5429.294 2.2501 1.1 4.4272 1.979 6.6408.049.1216.171.2068.294.2068.036 0 .073-.0122.122-.0243.159-.0609.244-.2555.183-.4136-.855-2.1771-1.649-4.3056-1.942-6.4949-1.283-9.791 3.054-17.0278 11.886-19.8496z"/>
  <path fill="#5B6670" d="M176.397 48.2949c1.185-.2919 7.745-1.8852 13.072-3.2231.22-.0487.342-.2676.293-.4865-.049-.219-.269-.3406-.489-.2919-5.314 1.3379-11.887 2.9312-13.059 3.2231-4.643 1.119-12.193 4.707-10.69 16.1764.257 1.9704 1.112 4.0989 2.114 6.6287.146.3771.317.8028.488 1.2528.061.1581.208.2554.379.2554.049 0 .098-.0121.146-.0243.208-.0851.306-.3041.233-.5108-.171-.4379-.342-.8758-.526-1.3258-1.001-2.5177-1.796-4.5002-2.04-6.3733-1.429-10.8491 5.705-14.2425 10.079-15.3007z"/>
  <path fill="#5B6670" d="M202.492 45.1934c-.086-.2554-.354-.3892-.611-.304-1.869.6081-3.702 1.1676-5.131 1.5811-3.457.9852-17.69 4.4516-19.596 4.9138-8.93 2.1528-7.965 9.4139-7.659 11.81.195 1.4839.94 3.3569 1.808 5.5219l.048.1216c.306.7784.733 1.8244 1.027 2.6758.073.1946.256.3162.452.3162.049 0 .11-.0121.159-.0243.256-.0851.378-.3527.293-.6081-.306-.8636-.721-1.9217-1.039-2.7123l-.049-.1216c-.843-2.1042-1.563-3.9286-1.747-5.2908-.317-2.4083-1.16-8.8059 6.927-10.7519 1.906-.4622 16.163-3.9407 19.633-4.9259 1.453-.4135 3.286-.973 5.167-1.5933.269-.0852.403-.3527.318-.6082z"/>
  <path fill="#1D1D1B" d="M186.195 56.2615c-.672.1582-3.335 1.119-3.677 1.2528-1.063.4135 1.343.6325 2.137.4743.795-.1581 1.515-.8392 2.004-1.3257.489-.4865.208-.5716-.464-.4014z"/>
  <path fill="#1D1D1B" d="M180.355 62.1968s-.085 3.3326-.061 4.2448c.024.9122.489 3.1745.721 3.5272.232.3405.794.4865.855.2067.061-.2919-.061-1.5568-.134-2.8217-.086-1.2406-1.222-4.4881-1.381-5.157z"/>
  <path fill="#1D1D1B" d="M206.902 54.4373c-9.932 7.2247-15.808 6.1787-17.616 6.3976 17.836-4.1232 19.326-14.7291 18.752-14.3277-.574.4013-6.731 2.4325-10.286 3.442-3.555 1.0095-17.959 4.5246-19.742 4.9503-5.816 1.3987-5.193 5.534-4.887 7.8206.305 2.2866 3.445 8.295 3.237 10.01-.317 2.5663-6.145 1.6054-7.745 1.5568-.66-.0243-1.454.3649-1.405 1.0095.012.2189.134.4257.134.6446 0 .4622-.488.7906-.549 1.2406-.037.2189.036.4379.085.6446.208.9852-.085 1.9947-.098 2.9921-.122 5.1691 5.816 1.3136 8.149 2.0555.977-2.0069 4.08-4.111 6.927-4.1718 12.278-.2798 12.827-5.1449 12.827-5.1449s-2.528.6325-7.036.2433c12.155-2.3839 15.319-5.0962 16.749-10.2775-6.231 3.6366-10.604 4.7434-14.33 4.561 15.796-4.5975 16.785-10.7154 16.834-13.6466zm-25.533 22.8416c-1.588.4744-3.017.3406-4.239 1.4474s-2.04 1.7879-2.59 2.0798c-.55.2919-1.051.0365-1.075-.4865-.024-.523-.257-.4257-.428-.9487-.171-.5108.685-.9122 1.344-1.1676 1.1-.4257 2.92-.9609 4.044-1.5082 1.124-.5473 1.979-.9 2.785-1.4474.733-.5108.941-.8878 1.442-.9243-.183-.146-.305-.4136-.428-.6325-.464-.8635-1.576.2919-1.747-.9608-.097-.7663-.097-.6812-.904-3.3448-.806-2.6636-.244-9.2802-.097-9.7424.146-.4621.635-.1702.83.1582.196.3284.489.377.868.2554.378-.1217.879.2189.757.5595-.134.3405-.464.5351-.488 1.1919-.025.669.073 1.5204.574 2.6758.501 1.1555 1.405 3.9651 1.588 5.8138.183 1.8487.183 3.6975-.403 4.0259h-.013c.538.0851 1.039.3162.929 1.1433-.134 1.046-1.148 1.3379-2.749 1.8122zm5.608-19.6185c-.648.2433-1.075 1.046-2.077 1.3501-1.002.304-1.869-.1338-2.285-.2676-.415-.1338-.611-.3162-.989.3527-.391.669-1.051.0243-1.149-.4014-.097-.4378.013-.9243.013-.9243.036-.6811.415-1.3866.806-1.8852.391-.4987.867-.8758 1.173-.9852.415-.1581 1.063.0121.44.7054-.636.6933-.66.8757.537.5108 1.197-.3648 4.154-1.1068 4.276-1.2284.134-.1216.11-.9973 1.356-.8392 1.234.1703 2.101.3162 3.115.0486 1.014-.2675 3.971-1.0095 4.496-1.2162.525-.2068 1.197-.3649-.208.5716s-3.408 2.1406-4.422 2.2866c-1.014.146-1.087-.4987-1.882-.4743-.794.0364-1.001.4743-1.368.9243-.379.4379-1.185 1.2285-1.832 1.4717z"/>
  <path fill="#1D1D1B" d="M204.385 81.4258h-52.287v9.5234-9.6572 13.1844c0 5.2421 4.325 9.5236 9.614 9.5236H214v-9.5236 4.0259-7.5531c.012-5.2421-4.325-9.5234-9.615-9.5234z"/>
  <path fill="#fff" d="M175.627 84.8804c1.894 0 3.274 1.2406 3.274 3.1744 0 1.9339-1.38 3.1745-3.274 3.1745-1.894 0-3.274-1.2406-3.274-3.1745 0-1.946 1.38-3.1744 3.274-3.1744zm0 5.1205c1.136 0 1.881-.8149 1.881-1.9461 0-1.1311-.745-1.946-1.881-1.946-1.136 0-1.881.8149-1.881 1.946 0 1.119.745 1.9461 1.881 1.9461z"/>
  <path fill="#fff" d="M179.903 85.0264h2.26c1.258 0 2.309.4013 2.309 1.8365 0 1.4231-.965 1.8488-2.248 1.8488h-.977v2.3595h-1.344v-6.0448zm1.332 2.5663h.891c.477 0 .941-.1581.941-.7298 0-.6203-.635-.7054-1.148-.7054h-.684v1.4352z"/>
  <path fill="#fff" d="M186.561 86.2062h-1.735v-1.1798h4.801v1.1798h-1.734v4.865h-1.332v-4.865z"/>
  <path fill="#fff" d="M190.385 85.0264h1.331v6.0448h-1.331v-6.0448z"/>
  <path fill="#fff" d="M166.672 95.754c-.268-.3163-.647-.4987-1.148-.4987-1.014 0-1.759.8149-1.759 1.946 0 1.1312.745 1.9461 1.71 1.9461.538 0 .977-.2433 1.258-.6447l1.112.8271c-.501.7172-1.368 1.0462-2.199 1.0462-1.894 0-3.274-1.2408-3.274-3.1747 0-1.9338 1.38-3.1744 3.274-3.1744.672 0 1.539.2311 2.053.8878l-1.027.8393z"/>
  <path fill="#fff" d="M170.667 94.1846h1.112l2.638 6.0444h-1.514l-.526-1.2766h-2.358l-.5 1.2766h-1.479l2.627-6.0444zm.513 1.7514l-.733 1.8731h1.478l-.745-1.8731z"/>
  <path fill="#fff" d="M175.151 94.1846h1.331v4.8164h2.48v1.228h-3.811v-6.0444z"/>
  <path fill="#fff" d="M183.763 95.754c-.268-.3163-.647-.4987-1.148-.4987-1.014 0-1.759.8149-1.759 1.946 0 1.1312.745 1.9461 1.71 1.9461.538 0 .977-.2433 1.258-.6447l1.112.8271c-.501.7172-1.368 1.0462-2.199 1.0462-1.893 0-3.274-1.2408-3.274-3.1747 0-1.9338 1.381-3.1744 3.274-3.1744.672 0 1.539.2311 2.053.8878l-1.027.8393z"/>
  <path fill="#fff" d="M185.73 94.1846h1.332v6.0444h-1.332v-6.0444z"/>
  <path fill="#fff" d="M193.5 97.8942c0 1.423-.879 2.4808-2.553 2.4808-1.686 0-2.566-1.0578-2.566-2.4808v-3.7096h1.332v3.661c0 .7419.513 1.3014 1.222 1.3014.708 0 1.221-.5595 1.221-1.3014v-3.661h1.332v3.7096h.012z"/>
  <path fill="#fff" d="M194.82 94.1846h2.028l1.392 3.9407h.012l1.405-3.9407h2.016v6.0444h-1.331v-4.6336h-.013l-1.6 4.6336h-1.014l-1.539-4.6336h-.013v4.6336h-1.331v-6.0444h-.012z"/>
</svg>
